<?xml version="1.0" encoding="UTF-8" standalone="no"?>
<svg
   viewBox="0 0 900 1200"
   version="1.1"
   id="svg150"
   sodipodi:docname="cover_98637054_p0.svg"
   inkscape:version="1.2 (dc2aedaf03, 2022-05-15)"
   xmlns:inkscape="http://www.inkscape.org/namespaces/inkscape"
   xmlns:sodipodi="http://sodipodi.sourceforge.net/DTD/sodipodi-0.dtd"
   xmlns="http://www.w3.org/2000/svg"
   xmlns:svg="http://www.w3.org/2000/svg">
  <defs
     id="defs154" />
  <sodipodi:namedview
     id="namedview152"
     pagecolor="#ffffff"
     bordercolor="#999999"
     borderopacity="1"
     inkscape:showpageshadow="0"
     inkscape:pageopacity="0"
     inkscape:pagecheckerboard="0"
     inkscape:deskcolor="#d1d1d1"
     showgrid="false"
     inkscape:zoom="0.27812867"
     inkscape:cx="913.24637"
     inkscape:cy="337.97307"
     inkscape:window-width="1920"
     inkscape:window-height="1015"
     inkscape:window-x="0"
     inkscape:window-y="36"
     inkscape:window-maximized="1"
     inkscape:current-layer="svg150" />
  <path
     style="font-variation-settings:normal;fill:none;stroke:#ff0000;-inkscape-stroke:none"
     d="m 423.302,5.54917 c 0,0 -74.542,14.24793 -119.92,56.63203"
     id="path2" />
  <path
     style="font-variation-settings:normal;fill:none;stroke:#ff0000;-inkscape-stroke:none"
     d="m 355.748,42.2953 c 0,0 -89.81,22.5282 -133.771,106.1097 -43.961,83.586 -46.098,121.599 -46.098,121.599"
     id="path4" />
  <path
     style="font-variation-settings:normal;fill:none;stroke:#ff0000;-inkscape-stroke:none"
     d="m 551.571,16.9251 c 0,0 59.767,7.9837 110.794,67.3429"
     id="path367" />
  <path
     style="font-variation-settings:normal;fill:none;stroke:#ff0000;-inkscape-stroke:none"
     d="m 508.003,39.2985 c 9.898,1.6437 26.43,11.6895 51.228,38.0353 24.976,26.5362 47.814,62.9362 47.745,62.9862"
     id="path365" />
  <path
     style="font-variation-settings:normal;fill:none;stroke:#ff0000;-inkscape-stroke:none"
     d="M 436.404,38.0553 C 359.17,53.152 312.059,146.752 302.633,160.532"
     id="path363" />
  <path
     style="font-variation-settings:normal;fill:none;stroke:#ff0000;-inkscape-stroke:none"
     d="m 328.786,65.0182 c 0,0 -19.074,9.8431 -39.337,39.9038 -20.262,30.06 -29.03,55.29 -31.738,65.038"
     id="path6" />
  <path
     style="font-variation-settings:normal;fill:none;stroke:#ff0000;-inkscape-stroke:none"
     d="m 593.113,3.46012 c 0,0 59.511,15.38028 117.374,63.48338 57.867,48.1035 84.893,111.4125 92.742,133.3115 0,0 46.443,122.947 24.912,245.084 0,0 -17.339,118.044 -36.47,143.917"
     id="path8" />
  <path
     style="font-variation-settings:normal;fill:none;stroke:#ff0000;-inkscape-stroke:none"
     d="m 834.791,363.541 c 0,0 5.471,55.414 11.663,100.008 6.192,44.598 4.781,108.897 -7.799,135.569 -12.58,26.672 -25.649,44.816 -32.793,61.749 -7.144,16.933 -20.311,41.687 -13.926,70.464 6.385,28.778 16.281,68.386 25.728,97.551 9.449,29.164 69.281,160.932 74.528,213.428"
     id="path10" />
  <path
     style="font-variation-settings:normal;fill:none;stroke:#ff0000;-inkscape-stroke:none"
     d="m 175.882,270.003 c 0,0 -57.798,115.896 -57.342,200.856 0.455,84.961 17.222,118.762 38.088,122.268 20.864,3.497 36.083,-12.195 36.083,-12.195"
     id="path379" />
  <path
     style="font-variation-settings:normal;fill:none;stroke:#ff0000;-inkscape-stroke:none"
     d="m 770.053,222.56 c 0,0 26.203,80.174 26.287,110.444"
     id="path377" />
  <path
     style="font-variation-settings:normal;fill:none;stroke:#ff0000;-inkscape-stroke:none"
     d="m 791.672,589.252 c 0,0 -7.926,25.921 -9.815,46.874 -1.889,20.952 -0.152,48.44 -0.152,48.44"
     id="path375" />
  <path
     style="font-variation-settings:normal;fill:none;stroke:#ff0000;-inkscape-stroke:none"
     d="m 826.423,467.194 c 0,0 6.698,112.851 2.074,131.545 -1.773,7.165 -4.942,18.161 -9.978,27.672 -8.096,15.289 -19.203,29.156 -23.457,35.245 -4.133,5.916 -9.757,13.881 -13.351,22.917"
     id="path12" />
  <path
     style="font-variation-settings:normal;fill:none;stroke:#ff0000;-inkscape-stroke:none"
     d="M 157.667,348.392 C 146.611,363.643 120.72,456 123.926,485.688 c 5.49,50.824 24.135,123.736 68.779,95.244"
     id="path14" />
  <path
     style="font-variation-settings:normal;fill:none;stroke:#ff0000;-inkscape-stroke:none"
     d="m 157.667,348.392 c 0,0 -24.352,155.301 25.423,206.489"
     id="path16" />
  <path
     style="font-variation-settings:normal;fill:none;stroke:#ff0000;-inkscape-stroke:none"
     d="m 168.033,399.071 c 0,0 -21.61,108.716 15.062,155.81"
     id="path18" />
  <path
     style="font-variation-settings:normal;fill:none;stroke:#ff0000;-inkscape-stroke:none"
     d="m 214.887,279.809 c 0,0 -29.003,67.949 -25.031,129.357 3.971,61.41 3.43,95.064 11.814,108.637"
     id="path389" />
  <path
     style="font-variation-settings:normal;fill:none;stroke:#ff0000;-inkscape-stroke:none"
     d="m 162.82,439.244 c 0,0 0.479,75.07 37.695,101.786"
     id="path20" />
  <path
     style="font-variation-settings:normal;fill:none;stroke:#ff0000;-inkscape-stroke:none"
     d="m 243.406,237.828 c 0,0 -14.933,62.851 -26.936,136.747 -10.13,62.372 -13.956,137.107 -16.73,179.257 -2.712,41.222 8.992,94.252 14.212,115.777"
     id="path393" />
  <path
     style="font-variation-settings:normal;fill:none;stroke:#ff0000;-inkscape-stroke:none"
     d="m 191.899,454.852 c 0,0 3.34,27.202 10.48,34.199"
     id="path22" />
  <path
     style="font-variation-settings:normal;fill:none;stroke:#ff0000;-inkscape-stroke:none"
     d="m 265.086,319.183 -17.945,28.193 15.618,52.736"
     id="path399" />
  <path
     style="font-variation-settings:normal;fill:none;stroke:#ff0000;-inkscape-stroke:none"
     d="m 208.446,418.243 c 0,-1.203 11.415,-39.696 16.799,-51.738 5.384,-12.043 11.557,-21.118 11.557,-21.118 l -8.574,-57.008 5.908,-16.448 9.401,58.776 26.387,-42.29"
     id="path397" />
  <path
     style="font-variation-settings:normal;fill:none;stroke:#ff0000;-inkscape-stroke:none"
     d="m 211.781,425.993 26.942,-60.296 c 0,0 18.535,61.698 25.462,65.655"
     id="path24" />
  <path
     style="font-variation-settings:normal;fill:none;stroke:#ff0000;-inkscape-stroke:none"
     d="m 277.968,263.262 c -11.665,19.506 -26.109,134.61 -6.135,204.272"
     id="path26" />
  <path
     style="font-variation-settings:normal;fill:none;stroke:#ff0000;-inkscape-stroke:none"
     d="m 335.277,202.408 c 0,0 -15.103,45.14 -14.1,68.014"
     id="path405" />
  <path
     style="font-variation-settings:normal;fill:none;stroke:#ff0000;-inkscape-stroke:none"
     d="m 263.448,366.127 c 0.02,32.299 11.668,80.952 43.481,114.488"
     id="path28" />
  <path
     style="font-variation-settings:normal;fill:none;stroke:#ff0000;-inkscape-stroke:none"
     d="m 319.479,295.706 c 0,0 -2.692,110.395 60.793,141.68"
     id="path409" />
  <path
     style="font-variation-settings:normal;fill:none;stroke:#ff0000;-inkscape-stroke:none"
     d="m 321.157,263.782 c 0,0 -62.856,132.293 -14.233,216.833"
     id="path30" />
  <path
     style="font-variation-settings:normal;fill:none;stroke:#ff0000;-inkscape-stroke:none"
     d="m 346.081,303.076 c 0,0 -14.026,105.341 34.192,134.31"
     id="path32" />
  <path
     style="font-variation-settings:normal;fill:none;stroke:#ff0000;-inkscape-stroke:none"
     d="m 366.512,262.194 c -0.475,1.028 -14.416,24.4 -21.718,74.352"
     id="path34" />
  <path
     style="font-variation-settings:normal;fill:none;stroke:#ff0000;-inkscape-stroke:none"
     d="m 365.694,301.578 c 0,0 -3.655,161.822 59.221,174.284"
     id="path417" />
  <path
     style="font-variation-settings:normal;fill:none;stroke:#ff0000;-inkscape-stroke:none"
     d="m 260.662,355.532 c 0,0 45.18,-37.192 102.975,-25.402"
     id="path36" />
  <path
     style="font-variation-settings:normal;fill:none;stroke:#ff0000;-inkscape-stroke:none"
     d="m 384.168,281.556 c 0,0 -18.798,159.106 40.742,194.306"
     id="path38" />
  <path
     style="font-variation-settings:normal;fill:none;stroke:#ff0000;-inkscape-stroke:none"
     d="m 382.15,317.626 c 0,0 12.259,101.596 42.908,131.883"
     id="path40" />
  <path
     style="font-variation-settings:normal;fill:none;stroke:#ff0000;-inkscape-stroke:none"
     d="m 417.77,426.542 c 0,0 9.733,36.199 20.288,46.432"
     id="path42" />
  <path
     style="font-variation-settings:normal;fill:none;stroke:#ff0000;-inkscape-stroke:none"
     d="m 417.77,426.542 c 0,0 20.677,57.584 61.794,60.352"
     id="path44" />
  <path
     style="font-variation-settings:normal;fill:none;stroke:#ff0000;-inkscape-stroke:none"
     d="m 456.985,236.7 c -0.58,23.714 -5.137,89.784 25.373,149.708 15.391,30.233 32.726,45.995 49.164,52.12 18.4,6.855 32.264,9.428 59.85,8.797"
     id="path431" />
  <path
     style="font-variation-settings:normal;fill:none;stroke:#ff0000;-inkscape-stroke:none"
     d="m 434.117,261.265 c 0,0 1.261,83.413 4.74,100.808"
     id="path429" />
  <path
     style="font-variation-settings:normal;fill:none;stroke:#ff0000;-inkscape-stroke:none"
     d="m 442.495,391.012 c 0,0 5.801,84.974 37.067,95.883"
     id="path46" />
  <path
     style="font-variation-settings:normal;fill:none;stroke:#ff0000;-inkscape-stroke:none"
     d="m 469.647,182.007 c 0,0 -26.147,113.01 25,192.019 6.602,10.198 10.233,19.458 15.92,27.551 7.197,10.241 16.368,18.613 24.412,24.653 16.255,12.208 40.965,20.94 56.39,21.104"
     id="path48" />
  <path
     style="font-variation-settings:normal;fill:none;stroke:#ff0000;-inkscape-stroke:none"
     d="m 492.355,461.502 c 0,0 17.032,-21.391 20.75,-33.184"
     id="path441" />
  <path
     style="font-variation-settings:normal;fill:none;stroke:#ff0000;-inkscape-stroke:none"
     d="m 526.946,257.62 c 0,0 16.691,83.179 -7.221,153.344"
     id="path439" />
  <path
     style="font-variation-settings:normal;fill:none;stroke:#ff0000;-inkscape-stroke:none"
     d="m 489.179,398.252 c 0,0 5.337,50.598 3.172,63.246"
     id="path437" />
  <path
     style="font-variation-settings:normal;fill:none;stroke:#ff0000;-inkscape-stroke:none"
     d="m 487.841,221.012 c 0,0 0.983,115.537 -2.669,133.961"
     id="path50" />
  <path
     style="font-variation-settings:normal;fill:none;stroke:#ff0000;-inkscape-stroke:none"
     d="m 487.382,327.561 c 0,0 70.768,-15.576 149.838,41.413"
     id="path52" />
  <path
     style="font-variation-settings:normal;fill:none;stroke:#ff0000;-inkscape-stroke:none"
     d="m 526.946,257.62 c 8.863,21.526 39.895,155.101 29.436,207.807"
     id="path54" />
  <path
     style="font-variation-settings:normal;fill:none;stroke:#ff0000;-inkscape-stroke:none"
     d="m 508.991,137.959 c 15.27,46.504 70.994,182.003 47.393,327.458"
     id="path56" />
  <path
     style="font-variation-settings:normal;fill:none;stroke:#ff0000;-inkscape-stroke:none"
     d="m 541.176,243.68 c 0,0 33.979,67.924 45.79,112.671 11.812,44.747 18.03,77.714 13.755,96.139"
     id="path58" />
  <path
     style="font-variation-settings:normal;fill:none;stroke:#ff0000;-inkscape-stroke:none"
     d="m 621.542,159.369 c 16.735,19.394 49.586,185.538 35.643,301.984"
     id="path453" />
  <path
     style="font-variation-settings:normal;fill:none;stroke:#ff0000;-inkscape-stroke:none"
     d="m 575.897,172.91 c 19.034,25.147 78.866,199.548 24.825,279.575"
     id="path60" />
  <path
     style="font-variation-settings:normal;fill:none;stroke:#ff0000;-inkscape-stroke:none"
     d="m 633.266,337.537 c 0,0 5.72,86.56 23.923,123.816"
     id="path62" />
  <path
     style="font-variation-settings:normal;fill:none;stroke:#ff0000;-inkscape-stroke:none"
     d="m 657.192,461.353 c 0,0 -3.021,164.627 -33.507,206.798 -28.054,38.804 -55.932,50.534 -71.208,54.184"
     id="path459" />
  <path
     style="font-variation-settings:normal;fill:none;stroke:#ff0000;-inkscape-stroke:none"
     d="m 623.899,357.29 c 0,0 11.147,79.375 33.292,104.053"
     id="path64" />
  <path
     style="font-variation-settings:normal;fill:none;stroke:#ff0000;-inkscape-stroke:none"
     d="m 657.981,574.023 c 0,0 -9.931,64.576 -25.536,80.249"
     id="path66" />
  <path
     style="font-variation-settings:normal;fill:none;stroke:#ff0000;-inkscape-stroke:none"
     d="m 682.486,497.072 c 0,0 -0.063,205.74 -130.016,225.252"
     id="path68" />
  <path
     style="font-variation-settings:normal;fill:none;stroke:#ff0000;-inkscape-stroke:none"
     d="m 715.3,401.497 c 2.229,108.117 13.857,297.021 -26.404,356.237 -33.23,48.881 -110.024,79.89 -138.334,75.438"
     id="path70" />
  <path
     style="font-variation-settings:normal;fill:none;stroke:#ff0000;-inkscape-stroke:none"
     d="m 742.951,573.904 c 0,0 2.48,190.65 -83.193,209.294"
     id="path469" />
  <path
     style="font-variation-settings:normal;fill:none;stroke:#ff0000;-inkscape-stroke:none"
     d="m 651.62,642.766 c 0,0 -3.204,174.554 -101.067,190.412"
     id="path72" />
  <path
     style="font-variation-settings:normal;fill:none;stroke:#ff0000;-inkscape-stroke:none"
     d="m 801.229,383.273 c 0,0 -1.811,161.941 -15.617,221.028"
     id="path473" />
  <path
     style="font-variation-settings:normal;fill:none;stroke:#ff0000;-inkscape-stroke:none"
     d="m 744.039,320.481 c 5.91,26.665 36.663,318.061 -12.183,414.375 -15.365,30.296 -40.519,43.337 -72.091,48.341"
     id="path74" />
  <path
     style="font-variation-settings:normal;fill:none;stroke:#ff0000;-inkscape-stroke:none"
     d="m 755.403,635.047 c 0,0 11.721,130.556 12.266,180.046 0.545,49.487 -6.544,114.838 -35.319,170.999 -28.775,56.158 -45.665,81.578 -78.636,95.118 -32.971,13.55 -56.411,43.6 -56.411,43.6"
     id="path76" />
  <path
     style="font-variation-settings:normal;fill:none;stroke:#ff0000;-inkscape-stroke:none"
     d="m 272.146,464.438 c 10.712,35.588 4.493,44.712 6.164,81.51 2.087,46.005 48.506,73.165 70.091,86.175 21.586,13.011 75.099,54.658 99.673,56.9 24.575,2.242 77.481,-17.391 91.142,-27.939 13.66,-10.549 81.621,-47.142 108.816,-88.06"
     id="path485" />
  <path
     style="font-variation-settings:normal;fill:none;stroke:#ff0000;-inkscape-stroke:none"
     d="m 229.346,501.905 4.822,-115.686"
     id="path483" />
  <path
     style="font-variation-settings:normal;fill:none;stroke:#ff0000;-inkscape-stroke:none"
     d="m 229.126,574.593 3.116,98.999"
     id="path481" />
  <path
     style="font-variation-settings:normal;fill:none;stroke:#ff0000;-inkscape-stroke:none"
     d="m 667.278,259.667 c 7.822,-6.856 28.785,26.094 31.357,31.399 2.571,5.306 13.069,22.296 13.069,22.296 0,0 12.692,-20.665 15.814,-27.677 3.121,-7.012 11.741,-28.097 11.741,-28.097 0,0 10.003,6.466 -4.847,33.978 -14.85,27.511 -16.699,32.76 -16.699,32.76 l 37.515,72.08 1.04,15.048 -4.35,0.473 -40.395,-77.211 c 0,0 -47.895,85.186 -55.527,82.542 -7.632,-2.643 8.181,-24.99 19.461,-42.649 11.28,-17.659 30.643,-50.486 30.643,-50.486 l -25.194,-42.142 -14.989,-18.786"
     id="path479" />
  <path
     style="font-variation-settings:normal;fill:none;stroke:#ff0000;-inkscape-stroke:none"
     d="m 803.346,862.117 c 0,0 -14.88,96.953 -51.92,145.323 -37.04,48.37 -45.709,61.69 -60.725,69.7 -15.016,8.01 -62.639,28.95 -72.825,35.44 -10.186,6.48 -20.566,12.22 -20.566,12.22"
     id="path78" />
  <path
     style="font-variation-settings:normal;fill:none;stroke:#ff0000;-inkscape-stroke:none"
     d="m 3.37324,721.435 9.36476,-11.88 15.7238,-6.961 6.7275,-10.726 25.1675,-5.197 0.4134,-19.691 11.9841,0.857 15.4282,2.607 4.8581,-14.423 8.8984,-6.747 13.181,-0.313 7.801,-3.95 13.926,12.822 7.195,-3.306 10.605,7.651 24.003,-17.825 13.051,-8.108 13.342,-3.55"
     id="path525" />
  <path
     style="font-variation-settings:normal;fill:none;stroke:#ff0000;-inkscape-stroke:none"
     d="m 294.574,589.552 c 0,0 0.337,73.784 5.655,118.053"
     id="path523" />
  <path
     style="font-variation-settings:normal;fill:none;stroke:#ff0000;-inkscape-stroke:none"
     d="m 250.386,555.889 c 0,0 -2.193,89.716 3.892,124.035"
     id="path521" />
  <path
     style="font-variation-settings:normal;fill:none;stroke:#ff0000;-inkscape-stroke:none"
     d="m 591.385,683.349 c 0,0 8.917,-23.903 10.748,-29.15 1.83,-5.246 7.743,-35.048 7.743,-35.048 0,0 -7.715,54.738 -13.681,69.324"
     id="path519" />
  <path
     style="font-variation-settings:normal;fill:none;stroke:#ff0000;-inkscape-stroke:none"
     d="M 600.971,559.734 581.447,580.51"
     id="path517" />
  <path
     style="font-variation-settings:normal;fill:none;stroke:#ff0000;-inkscape-stroke:none"
     d="M 588.529,550.527 561.39,582.394"
     id="path515" />
  <path
     style="font-variation-settings:normal;fill:none;stroke:#ff0000;-inkscape-stroke:none"
     d="m 573.68,546.892 -31.041,37.74"
     id="path513" />
  <path
     style="font-variation-settings:normal;fill:none;stroke:#ff0000;-inkscape-stroke:none"
     d="m 556.394,547.88 -30.911,33.471"
     id="path511" />
  <path
     style="font-variation-settings:normal;fill:none;stroke:#ff0000;-inkscape-stroke:none"
     d="m 542.095,543.656 -28.161,37.199"
     id="path509" />
  <path
     style="font-variation-settings:normal;fill:none;stroke:#ff0000;-inkscape-stroke:none"
     d="m 525.258,547.551 -19.912,25.66"
     id="path507" />
  <path
     style="font-variation-settings:normal;fill:none;stroke:#ff0000;-inkscape-stroke:none"
     d="m 350.475,554.96 c 0,0 -17.019,18.069 -19.305,22.19"
     id="path505" />
  <path
     style="font-variation-settings:normal;fill:none;stroke:#ff0000;-inkscape-stroke:none"
     d="m 341.668,548.809 c 0,0 -27.107,27.166 -29.675,34.573"
     id="path503" />
  <path
     style="font-variation-settings:normal;fill:none;stroke:#ff0000;-inkscape-stroke:none"
     d="m 329.085,547.251 -27.022,30.054"
     id="path501" />
  <path
     style="font-variation-settings:normal;fill:none;stroke:#ff0000;-inkscape-stroke:none"
     d="m 318.38,540.031 c -0.465,0.798 -19.706,24.718 -19.706,24.718"
     id="path499" />
  <path
     style="font-variation-settings:normal;fill:none;stroke:#ff0000;-inkscape-stroke:none"
     d="m 306.168,538.783 -16.152,19.468"
     id="path497" />
  <path
     style="font-variation-settings:normal;fill:none;stroke:#ff0000;-inkscape-stroke:none"
     d="M 296.062,537.285 286.837,547.3"
     id="path495" />
  <path
     style="font-variation-settings:normal;fill:none;stroke:#ff0000;-inkscape-stroke:none"
     d="m 485.834,475.343 c 0,0 29.757,-28.724 33.088,-26.406 3.332,2.318 -19.994,47.228 10.608,68.674 30.604,21.446 62.589,-3.812 64.443,-27.191 1.855,-23.379 -0.42,-22.878 -0.42,-22.878 0,0 16.636,14.629 18.308,26.115 1.672,11.486 1.889,10.685 -0.676,16.112 -2.564,5.428 -9.254,12.613 -9.254,12.613 0,0 22.548,-5.365 19.928,-36.013 -2.057,-24.075 -42.34,-60.553 -75.667,-55.883 -33.327,4.67 -48.294,17.577 -59.795,39.65"
     id="path493" />
  <path
     style="font-variation-settings:normal;fill:none;stroke:#ff0000;-inkscape-stroke:none"
     d="m 275.821,458.656 c 0,0 9.237,-36.845 44.139,-30.78 34.902,6.063 55.747,33.343 53.155,57.592 -2.591,24.248 -15.903,47.252 -43.711,34.268 -27.808,-12.984 -23.187,-45.24 -20.861,-54.742 2.327,-9.502 5.933,-19.991 5.933,-19.991 0,0 -22.501,1.348 -33.749,23.298"
     id="path491" />
  <path
     style="font-variation-settings:normal;fill:none;stroke:#ff0000;-inkscape-stroke:none"
     d="m 419.667,571.048 c -3.636,3.983 -8.904,14.487 -3.163,14.737 5.741,0.25 11.212,0.539 12.576,-1.062"
     id="path489" />
  <path
     style="font-variation-settings:normal;fill:none;stroke:#ff0000;-inkscape-stroke:none"
     d="m 413.616,626.869 c 9.626,-1.602 9.019,5.299 22.861,4.103 13.842,-1.197 22.123,-3.735 25.558,-2.586"
     id="path80" />
  <path
     style="font-variation-settings:normal;fill:none;stroke:#ff0000;-inkscape-stroke:none"
     d="m 60.3568,686.674 c 0,0 0.6521,20.33 8.8894,20.698 8.2384,0.368 14.3518,-3.182 14.3518,-3.182 l 1.2851,4.741 -6.4968,6.668 10.3414,18.227 c 0,0 15.4783,-17.494 18.1573,-16.297 2.679,1.197 1.637,9.907 5.103,15.742 3.466,5.834 7.07,17.229 7.07,17.229 l 7.511,-0.492 12.638,-8.44 12.651,4.773 c 0,0 4.009,14.93 11.325,19.05 7.317,4.12 11.03,0.669 12.08,-2.541 1.049,-3.211 -0.952,-12.717 -0.952,-12.717"
     id="path82" />
  <path
     style="font-variation-settings:normal;fill:none;stroke:#ff0000;-inkscape-stroke:none"
     d="m 78.3863,715.594 -1.9323,16.304 c 0,0 0.5423,12.733 10.7399,11.748 10.1956,-0.985 10.0857,-5.329 10.0857,-5.329 l 4.8604,2.154 0.207,14.472 c 0,0 2.257,1.041 5.16,2.512 2.903,1.472 5.871,0.165 5.871,0.165 l 1.201,3.6 8.009,-1.901 8.372,4.796 4.961,2.32 9.172,3.4 15.919,0.911 7.449,-3.096"
     id="path84" />
  <path
     style="font-variation-settings:normal;fill:none;stroke:#ff0000;-inkscape-stroke:none"
     d="m 1.09545,907.842 2.79406,-8.171 15.03579,-10.191 47.2143,-29.692 6.5188,-5.289 6.2482,-24.101 17.671,-37.953 18.0014,-31.225"
     id="path547" />
  <path
     style="font-variation-settings:normal;fill:none;stroke:#ff0000;-inkscape-stroke:none"
     d="m 1.71757,883.656 3.92247,-12.292 7.49146,-54.185 8.0426,-56.061"
     id="path545" />
  <path
     style="font-variation-settings:normal;fill:none;stroke:#ff0000;-inkscape-stroke:none"
     d="m 102.495,664.656 -8.0234,6.291 -6.0544,6.72"
     id="path543" />
  <path
     style="font-variation-settings:normal;fill:none;stroke:#ff0000;-inkscape-stroke:none"
     d="m 108.517,667.192 6.216,-14.783"
     id="path541" />
  <path
     style="font-variation-settings:normal;fill:none;stroke:#ff0000;-inkscape-stroke:none"
     d="m 90.633,668.999 5.2256,-1.026 1.8774,-13.054"
     id="path539" />
  <path
     style="font-variation-settings:normal;fill:none;stroke:#ff0000;-inkscape-stroke:none"
     d="m 75.3546,689.77 13.0656,-9.997 5.4513,-0.21 3.479,6.074 -8.4031,16.261"
     id="path537" />
  <path
     style="font-variation-settings:normal;fill:none;stroke:#ff0000;-inkscape-stroke:none"
     d="m 65.8121,668.37 9.5425,21.403 -3.2414,16.626"
     id="path535" />
  <path
     style="font-variation-settings:normal;fill:none;stroke:#ff0000;-inkscape-stroke:none"
     d="m 97.2796,738.322 c 1.5988,-2.944 8.9544,-11.527 8.9544,-11.527"
     id="path533" />
  <path
     style="font-variation-settings:normal;fill:none;stroke:#ff0000;-inkscape-stroke:none"
     d="m 113.38,757.624 9.172,-3.138 10.226,-6.71"
     id="path86" />
  <path
     style="font-variation-settings:normal;fill:none;stroke:#ff0000;-inkscape-stroke:none"
     d="m 40.0594,891.036 6.5178,-3.208 12.3526,-23.037"
     id="path88" />
  <path
     style="font-variation-settings:normal;fill:none;stroke:#ff0000;-inkscape-stroke:none"
     d="m 132.753,886.662 15.01,-35.936 13.226,-22.318 17.34,-29.663 5.61,-11.332 -0.755,-10.299 5.363,-22.337"
     id="path553" />
  <path
     style="font-variation-settings:normal;fill:none;stroke:#ff0000;-inkscape-stroke:none"
     d="m 2.22686,920.554 20.71374,-7.673 8.8825,-0.32 14.3098,-4.106 36.7531,-17.002 11.7863,-4.713 38.0767,-0.073 c 0,0 -8.822,-39.751 -9.818,-56.134 -0.995,-16.383 -2.784,-45.735 -2.784,-45.735"
     id="path90" />
  <path
     style="font-variation-settings:normal;fill:none;stroke:#ff0000;-inkscape-stroke:none"
     d="m 57.1932,904.687 c 0,0 -48.23185,113.713 -44.1266,177.883 4.1052,64.17 14.6273,85.97 22.5291,92.88"
     id="path92" />
  <path
     style="font-variation-settings:normal;fill:none;stroke:#ff0000;-inkscape-stroke:none"
     d="m 52.8474,1118.03 c 0,0 33.1132,-20.79 39.4533,-15.43 6.34,5.35 -25.1106,22.49 -25.1106,22.49 0,0 34.0139,-15.27 40.1039,-8.65 9.873,10.72 -42.3727,44.45 -49.3858,34.89 -10.9086,-14.87 91.2778,-65.2 147.3618,-64.8"
     id="path559" />
  <path
     style="font-variation-settings:normal;fill:none;stroke:#ff0000;-inkscape-stroke:none"
     d="M 94.6723,886.742 C 66.1027,921.19 -10.1796,1051.01 35.5957,1175.45"
     id="path94" />
  <path
     style="font-variation-settings:normal;fill:none;stroke:#ff0000;-inkscape-stroke:none"
     d="m 103.035,1121.52 -5.1872,-87.57 9.4372,62.23"
     id="path591" />
  <path
     style="font-variation-settings:normal;fill:none;stroke:#ff0000;-inkscape-stroke:none"
     d="m 121.678,887.701 c 0,0 -60.9388,101.906 -70.2396,184.429 -9.3009,82.53 -7.7191,99.88 -2.5045,124.24"
     id="path589" />
  <path
     style="font-variation-settings:normal;fill:none;stroke:#ff0000;-inkscape-stroke:none"
     d="m 57.332,1182.73 c 0,0 140.432,-40.65 181.304,-39.74"
     id="path587" />
  <path
     style="font-variation-settings:normal;fill:none;stroke:#ff0000;-inkscape-stroke:none"
     d="m 190.291,1141.29 0.275,-11.29 -0.725,5.38 -5.131,-0.05 3.997,-7.39"
     id="path585" />
  <path
     style="font-variation-settings:normal;fill:none;stroke:#ff0000;-inkscape-stroke:none"
     d="m 169.301,1136.8 c 1.454,-0.12 4.858,-1.54 4.858,-1.54 l -4.074,7.91 7.597,-1.76"
     id="path583" />
  <path
     style="font-variation-settings:normal;fill:none;stroke:#ff0000;-inkscape-stroke:none"
     d="m 153.503,1145.49 2.302,2.52"
     id="path581" />
  <path
     style="font-variation-settings:normal;fill:none;stroke:#ff0000;-inkscape-stroke:none"
     d="m 141.46,1143.09 -7.386,-0.07 -1.984,5.4 6.564,1.23 -2.676,5.7 -3.076,1.52"
     id="path579" />
  <path
     style="font-variation-settings:normal;fill:none;stroke:#ff0000;-inkscape-stroke:none"
     d="m 110.374,1157.37 0.685,2.42"
     id="path577" />
  <path
     style="font-variation-settings:normal;fill:none;stroke:#ff0000;-inkscape-stroke:none"
     d="m 99.4695,1151.18 0.2527,9.28"
     id="path575" />
  <path
     style="font-variation-settings:normal;fill:none;stroke:#ff0000;-inkscape-stroke:none"
     d="m 86.8214,1156.17 3.4322,-1.03 -0.7759,3.55 -2.7961,4.58 7.1309,-2.65"
     id="path573" />
  <path
     style="font-variation-settings:normal;fill:none;stroke:#ff0000;-inkscape-stroke:none"
     d="m 59.6697,1163.06 c 0.2127,-0.53 8.7577,-3.39 8.7577,-3.39 l 0.016,2.87 -5.7479,6.3 13.3631,-7.07 1.6726,3.81 5.6021,-4.01 -0.9646,-3.78 -3.9544,1.52 -1.0076,2.02"
     id="path571" />
  <path
     style="font-variation-settings:normal;fill:none;stroke:#ff0000;-inkscape-stroke:none"
     d="m 176.561,1100.15 c 8.134,8.07 -2.342,23.73 -9.119,19.64 -6.458,-3.89 21.21,-11.64 29.204,-8.54"
     id="path569" />
  <path
     style="font-variation-settings:normal;fill:none;stroke:#ff0000;-inkscape-stroke:none"
     d="M 166.625,1106.24 188.628,1099"
     id="path567" />
  <path
     style="font-variation-settings:normal;fill:none;stroke:#ff0000;-inkscape-stroke:none"
     d="m 171.438,1099.15 17.028,-5.35"
     id="path565" />
  <path
     style="font-variation-settings:normal;fill:none;stroke:#ff0000;-inkscape-stroke:none"
     d="m 163.899,1099.85 c 0,0 -6.511,12.54 -2.124,19.19"
     id="path563" />
  <path
     style="font-variation-settings:normal;fill:none;stroke:#ff0000;-inkscape-stroke:none"
     d="m 125.812,1110.44 -0.461,10.49 c 0,0 22.135,-18.94 25.145,-15.28 3.008,3.66 -9.33,19.07 -19.493,20.56"
     id="path96" />
  <path
     style="font-variation-settings:normal;fill:none;stroke:#ff0000;-inkscape-stroke:none"
     d="m 95.4792,677.567 20.2708,-14.129 60.464,3.619 43.323,3.65 53.968,15.765 16.053,10.003 44.158,44.413 -12.69,58.91 -6.831,7.712 -10.391,-0.907 -20.92,2.329"
     id="path605" />
  <path
     style="font-variation-settings:normal;fill:none;stroke:#ff0000;-inkscape-stroke:none"
     d="m 390.489,661.2 c 0,0 8.362,81.404 14.993,84.624 6.631,3.219 22.658,3.797 30.511,2.555 7.853,-1.241 91.018,-58.116 110.305,-78.33 5.524,-5.79 10.423,-7 5.449,-15.813"
     id="path603" />
  <path
     style="font-variation-settings:normal;fill:none;stroke:#ff0000;-inkscape-stroke:none"
     d="m 320.378,725.31 c 0,0 16.471,-76.832 28.416,-90.42"
     id="path601" />
  <path
     style="font-variation-settings:normal;fill:none;stroke:#ff0000;-inkscape-stroke:none"
     d="m 310.042,716.073 c 0,0 10.847,-58.592 31.891,-86.098"
     id="path599" />
  <path
     style="font-variation-settings:normal;fill:none;stroke:#ff0000;-inkscape-stroke:none"
     d="m 296.741,644.574 6.001,-16.884 c 0,0 -6.865,-1.926 -5.835,-1.926 1.029,0 5.564,2.747 16.2,2.271 10.636,-0.474 21.682,-2.526 21.682,-2.526"
     id="path597" />
  <path
     style="font-variation-settings:normal;fill:none;stroke:#ff0000;-inkscape-stroke:none"
     d="m 132.753,886.662 c 0,0 -19.465,111.093 -15.547,161.638"
     id="path595" />
  <path
     style="font-variation-settings:normal;fill:none;stroke:#ff0000;-inkscape-stroke:none"
     d="m 92.1988,1196.81 c 0,0 20.2322,-135.04 25.0032,-148.54"
     id="path98" />
  <path
     style="font-variation-settings:normal;fill:none;stroke:#ff0000;-inkscape-stroke:none"
     d="m 287.214,703.9 27.777,54.084 c 0,0 11.261,16.93 1.436,24.065 -9.825,7.135 -37.445,28.106 -37.445,28.106 L 256.6,807.964"
     id="path100" />
  <path
     style="font-variation-settings:normal;fill:none;stroke:#ff0000;-inkscape-stroke:none"
     d="m 274.083,703.66 c 5.055,3.95 8.262,29.351 8.262,29.351 l 10.72,46.041 c 0,0 1.844,9.014 -11.876,16.418 -13.719,7.403 -28.594,15.624 -37.499,15.17 -8.905,-0.453 -36.662,-15.326 -36.662,-15.326 l -5.223,-19.251"
     id="path102" />
  <path
     style="font-variation-settings:normal;fill:none;stroke:#ff0000;-inkscape-stroke:none"
     d="m 257.227,704.14 5.632,7.275 0.841,51.146 1.361,18.991 -21.698,10.931 -7.202,-3.348"
     id="path104" />
  <path
     style="font-variation-settings:normal;fill:none;stroke:#ff0000;-inkscape-stroke:none"
     d="m 165.976,728.316 31.837,9.145 26.593,-5.753"
     id="path617" />
  <path
     style="font-variation-settings:normal;fill:none;stroke:#ff0000;-inkscape-stroke:none"
     d="m 117.374,743.115 c 0,0 18.864,-19.054 29.782,-18.663"
     id="path615" />
  <path
     style="font-variation-settings:normal;fill:none;stroke:#ff0000;-inkscape-stroke:none"
     d="m 261.88,738.282 -1.657,38.165 -7.069,8.114 -33.34,9.762 c 0,0 -24.954,-26.125 -22.209,-30.497 2.746,-4.369 11.452,0.441 14.196,1.84 2.744,1.398 10.591,8.275 10.591,8.275 l 19.048,-5.333 c 0,0 -4.485,-34.156 -1.405,-43.527"
     id="path106" />
  <path
     style="font-variation-settings:normal;fill:none;stroke:#ff0000;-inkscape-stroke:none"
     d="m 446.929,743.694 c 0,0 5.948,1.975 10.531,9.401 4.584,7.425 27.037,87.776 31.457,89.776 4.419,2 40.463,-27.108 47.226,-33.962 6.763,-6.856 66.743,-106.929 66.743,-106.929"
     id="path625" />
  <path
     style="font-variation-settings:normal;fill:none;stroke:#ff0000;-inkscape-stroke:none"
     d="m 332.75,748.717 c 0,0 58.09,-36.39 66.235,-18.485"
     id="path623" />
  <path
     style="font-variation-settings:normal;fill:none;stroke:#ff0000;-inkscape-stroke:none"
     d="m 327.488,772.443 c 0,0 45.288,-25.383 56.348,-29.542 11.06,-4.16 13.481,-3.685 16.079,0.65 2.599,4.335 0.868,10.88 13.101,11.365 12.233,0.486 5.259,18.375 -7.689,32.975"
     id="path621" />
  <path
     style="font-variation-settings:normal;fill:none;stroke:#ff0000;-inkscape-stroke:none"
     d="m 130.036,732.64 8.501,0.495 c 0,0 43.829,23.932 59.846,20.089 16.017,-3.842 30.949,-8.571 41.244,0.759"
     id="path108" />
  <path
     style="font-variation-settings:normal;fill:none;stroke:#ff0000;-inkscape-stroke:none"
     d="m 554.447,653.122 c 0,0 4.934,-2.18 13.185,6.181 8.25,8.362 32.269,35.252 32.269,35.252"
     id="path629" />
  <path
     style="font-variation-settings:normal;fill:none;stroke:#ff0000;-inkscape-stroke:none"
     d="m 404.629,747.019 15.753,8.295 c 0,0 3.441,-2.502 8.521,-2.767 5.081,-0.263 19.155,32.302 27.956,59.721 8.8,27.419 19.052,54.45 25.318,54.779 6.266,0.327 66.479,-41.657 86.125,-72.351 22.028,-34.419 47.744,-80.68 47.744,-80.68"
     id="path110" />
  <path
     style="font-variation-settings:normal;fill:none;stroke:#ff0000;-inkscape-stroke:none"
     d="m 401.363,758.223 c 12.251,-1.575 15.206,10.605 6.77,16.192 -8.437,5.587 -16.056,-3.193 -11.93,-11.594"
     id="path637" />
  <path
     style="font-variation-settings:normal;fill:none;stroke:#ff0000;-inkscape-stroke:none"
     d="m 455.377,812.507 c 0,0 -57.615,0.422 -60.044,4.077 -2.431,3.655 16.573,13.593 36.123,58.906 19.549,45.312 28.897,58.101 28.897,58.101 0,0 16.736,-31.354 20.617,-37.066 3.88,-5.712 24.549,-41.681 24.549,-41.681"
     id="path635" />
  <path
     style="font-variation-settings:normal;fill:none;stroke:#ff0000;-inkscape-stroke:none"
     d="m 696.307,782.679 9.707,9.635 3.942,8.411 -6.614,0.737 -38.268,44.196 -27.514,37.607 -26.225,64.625 -2.649,-32.003 -61.709,41.384 -29.984,-64.13 -49.698,33.102"
     id="path633" />
  <path
     style="font-variation-settings:normal;fill:none;stroke:#ff0000;-inkscape-stroke:none"
     d="m 605.335,701.094 22.494,34.014 c 0,0 -44.813,45.845 -54.296,52.402"
     id="path112" />
  <path
     style="font-variation-settings:normal;fill:none;stroke:#ff0000;-inkscape-stroke:none"
     d="m 660.967,910.988 c 0,0 12.495,-63.911 18.004,-76.229"
     id="path645" />
  <path
     style="font-variation-settings:normal;fill:none;stroke:#ff0000;-inkscape-stroke:none"
     d="m 607.552,1011.08 c 0,0 8.431,-47.002 15.084,-60.902 6.653,-13.899 31.931,-81.532 41.475,-98.037"
     id="path643" />
  <path
     style="font-variation-settings:normal;fill:none;stroke:#ff0000;-inkscape-stroke:none"
     d="m 461.908,937.231 9.973,27.812 -4.517,22.156 42.929,5.635 43.931,4.106 16.922,5.76 21.07,2.68 18.146,-53.807"
     id="path641" />
  <path
     style="font-variation-settings:normal;fill:none;stroke:#ff0000;-inkscape-stroke:none"
     d="m 703.337,801.462 c 0,0 26.621,17.793 32.166,26.314 5.546,8.521 11.95,45.339 14.962,49.527 3.013,4.188 -2.35,51.7 -0.713,61.475"
     id="path114" />
  <path
     style="font-variation-settings:normal;fill:none;stroke:#ff0000;-inkscape-stroke:none"
     d="m 532.838,1121.32 -15.319,-26.1 4.658,-16.8 15.119,-25.78 10.756,-5.5 13.927,1.38 38.004,-0.82 23.197,-4.58 34.412,9.28 25.465,8.12"
     id="path649" />
  <path
     style="font-variation-settings:normal;fill:none;stroke:#ff0000;-inkscape-stroke:none"
     d="m 609.37,1025.36 c 0.696,-1.16 36.884,-28.545 52.07,-51.301 15.187,-22.756 52.089,-72.428 77.378,-82.006"
     id="path116" />
  <path
     style="font-variation-settings:normal;fill:none;stroke:#ff0000;-inkscape-stroke:none"
     d="m 544.022,1099.15 -2.09,-10.59 5.558,-8.94 12.264,-7.04 15.954,-1.75 37.601,1.79 12.475,-0.33 -20.934,9.2 -40.757,13.42 -28.87,8.92 -1.987,28.77 1.024,23.26 16.921,16.7 9.656,23.94"
     id="path118" />
  <path
     style="font-variation-settings:normal;fill:none;stroke:#ff0000;-inkscape-stroke:none"
     d="m 707.241,1068.5 12.188,3.57 7.085,-14.47 18.318,-9.75 5.971,1.87 10.285,26.61 -4.668,11.96 -6.998,5.23 8.689,19.34 15.413,11.79 15.568,-4.5 2.751,4.24 -6.111,13.94 4.124,13.17 -18.669,10.1 5.588,16.01 -9.994,-4.64 -7.077,1.44"
     id="path661" />
  <path
     style="font-variation-settings:normal;fill:none;stroke:#ff0000;-inkscape-stroke:none"
     d="m 696.397,1182.83 7.281,1.92 45.23,-7.23 8.879,2.44 3.695,14.84"
     id="path659" />
  <path
     style="font-variation-settings:normal;fill:none;stroke:#ff0000;-inkscape-stroke:none"
     d="m 615.491,1195.92 v -4.21 l 38.837,-32.32 -6.873,7.52 44.914,15.49 -12.985,12.62"
     id="path657" />
  <path
     style="font-variation-settings:normal;fill:none;stroke:#ff0000;-inkscape-stroke:none"
     d="m 592.064,1197.21 c 0,-1.04 -7.664,-12.74 -7.664,-12.74 l -1.154,-16.31 39.721,-25.87 9.961,-2.3 -13.348,8.49 -31.111,37.71"
     id="path655" />
  <path
     style="font-variation-settings:normal;fill:none;stroke:#ff0000;-inkscape-stroke:none"
     d="m 615.95,1115.63 -60.227,34.99 0.54,-25.52 22.618,-2.22 23.563,-7.68"
     id="path120" />
  <path
     style="font-variation-settings:normal;fill:none;stroke:#ff0000;-inkscape-stroke:none"
     d="m 781.407,1179.24 c 0,0 13.836,-1.91 19.129,2.22 5.292,4.14 7.041,11.02 12.715,5.21 5.673,-5.82 5.807,-20.27 3.321,-33.64 -2.486,-13.36 -8.415,-23.19 -7.915,-26.56"
     id="path669" />
  <path
     style="font-variation-settings:normal;fill:none;stroke:#ff0000;-inkscape-stroke:none"
     d="m 792.801,1128.11 c 0,0 13.63,-2.55 16.59,-8.6 2.96,-6.05 1.947,-8.69 -1.375,-11.62 -3.323,-2.93 -5.117,-14.72 -8.425,-17.05 -3.307,-2.33 -11.051,-1.79 -11.051,-1.79"
     id="path667" />
  <path
     style="font-variation-settings:normal;fill:none;stroke:#ff0000;-inkscape-stroke:none"
     d="m 758.858,1095.36 c 0,0 16.342,1.82 23.319,-5.47 6.976,-7.29 -6.823,-7.49 -6.671,-8.56 0.153,-1.06 -4.558,-28.18 -4.558,-28.18 l -15.497,-6.39"
     id="path665" />
  <path
     style="font-variation-settings:normal;fill:none;stroke:#ff0000;-inkscape-stroke:none"
     d="m 722.021,1073.29 c 2.307,1.22 26.949,7.51 32.888,11.77"
     id="path122" />
  <path
     style="font-variation-settings:normal;fill:none;stroke:#ff0000;-inkscape-stroke:none"
     d="m 822.199,1192.92 c 0,0 15.164,-10.69 11.55,-37.61 -3.145,-23.43 -4.739,-34.56 -9.377,-42.86 -7.709,-13.81 -16.168,-34.36 -30.059,-33.17"
     id="path124" />
  <path
     style="font-variation-settings:normal;fill:none;stroke:#ff0000;-inkscape-stroke:none"
     d="m 747.724,1015.57 2.507,28.12"
     id="path675" />
  <path
     style="font-variation-settings:normal;fill:none;stroke:#ff0000;-inkscape-stroke:none"
     d="m 777.243,1069.09 9.409,4.8 16.64,17.35"
     id="path126" />
  <path
     style="font-variation-settings:normal;fill:none;stroke:#ff0000;-inkscape-stroke:none"
     d="m 833.903,1143.19 c 5.898,-40.93 13.333,-113.58 -7.914,-206.349"
     id="path679" />
  <path
     style="font-variation-settings:normal;fill:none;stroke:#ff0000;-inkscape-stroke:none"
     d="m 778.71,1065.1 c 0,0 2.125,-24.23 2.173,-33.63 0.049,-9.4 -1.814,-42.301 -1.814,-42.301 0,0 6.457,76.471 7.583,84.741"
     id="path128" />
  <path
     style="font-variation-settings:normal;fill:none;stroke:#ff0000;-inkscape-stroke:none"
     d="m 188.464,764.654 c 0,0 -5.412,25.521 0.291,50.964 5.705,25.444 9.035,38.182 10.876,38.493 1.843,0.311 47.751,-34.522 54.408,-34.206 6.658,0.317 9.002,20.777 9.002,20.777"
     id="path683" />
  <path
     style="font-variation-settings:normal;fill:none;stroke:#ff0000;-inkscape-stroke:none"
     d="m 849.53,1193.22 c 0,0 15.261,-49.07 6.44,-123.9 -8.82,-74.813 -28.932,-130.871 -28.932,-130.871"
     id="path130" />
  <path
     style="font-variation-settings:normal;fill:none;stroke:#ff0000;-inkscape-stroke:none"
     d="m 270.728,820.436 -11.7,37.816 c 0,0 -38.524,15.712 -43.82,22.781 -5.295,7.069 6.881,47.843 12.812,52.946 5.931,5.103 22.368,12.717 31.578,14.615 9.21,1.897 21.83,12.222 26.33,12.998 4.501,0.776 12.978,-3.952 22.254,-24.267 9.276,-20.315 20.405,-63.746 25.139,-71.381"
     id="path132" />
  <path
     style="font-variation-settings:normal;fill:none;stroke:#ff0000;-inkscape-stroke:none"
     d="m 262.759,810.11 c 0,0 12.085,12.784 14.743,14.341 2.658,1.558 11.745,7.783 13.321,7.49 1.577,-0.292 -15.37,-8.731 -17.194,-21.547"
     id="path691" />
  <path
     style="font-variation-settings:normal;fill:none;stroke:#ff0000;-inkscape-stroke:none"
     d="m 360.611,835.444 -6.565,4.705 -12.272,23.842 -8.927,23.938 1.716,25.674 24.104,-12.237 10.401,-56.38 -6.253,-7.819"
     id="path689" />
  <path
     style="font-variation-settings:normal;fill:none;stroke:#ff0000;-inkscape-stroke:none"
     d="m 298.279,950.672 -5.396,6.843 -4.601,-3.013 -0.983,-20.475 7.799,-10.864 13.005,-12.693 14.898,-28.816 14.323,-24.735 13.279,-16.74"
     id="path134" />
  <path
     style="font-variation-settings:normal;fill:none;stroke:#ff0000;-inkscape-stroke:none"
     d="m 259.024,858.252 c 0,0 23.399,-9.264 30.952,-14.378 7.552,-5.113 29.173,-17.787 29.173,-17.787"
     id="path695" />
  <path
     style="font-variation-settings:normal;fill:none;stroke:#ff0000;-inkscape-stroke:none"
     d="m 299.088,807.783 c 0,0 22.075,20.279 31.599,23.935 9.525,3.655 19.911,8.461 35.846,10.551 -18.949,-4.946 -28.188,-14.933 -33.061,-21.614 -9.209,-12.622 -12.449,-20.851 -12.449,-20.851"
     id="path136" />
  <path
     style="font-variation-settings:normal;fill:none;stroke:#ff0000;-inkscape-stroke:none"
     d="m 246.093,952.349 -23.762,23.394 6.225,1.609 7.56,8.286 6.505,19.212 2.623,2.16 2.954,-11.053 3.112,2.914 6.643,27.609 2.225,23.25 8.218,5.73"
     id="path707" />
  <path
     style="font-variation-settings:normal;fill:none;stroke:#ff0000;-inkscape-stroke:none"
     d="m 229.786,1196.81 c 2.005,-49.29 14.975,-94.22 21.88,-106.83 6.904,-12.59 29.644,-58.37 29.644,-58.37"
     id="path705" />
  <path
     style="font-variation-settings:normal;fill:none;stroke:#ff0000;-inkscape-stroke:none"
     d="m 212.68,1174.25 c 0.138,-0.35 3.932,-25.81 3.932,-25.81 l 5.475,-29.48 8.784,-21.12 11.475,-27.03 10.442,-22.33"
     id="path703" />
  <path
     style="font-variation-settings:normal;fill:none;stroke:#ff0000;-inkscape-stroke:none"
     d="m 210.852,1197.71 c 0.128,-0.74 0.312,-6.03 0.312,-6.03 l 8.86,-1.66 -0.11,-13.46 -9.531,-1.47 -5.325,2.72 c 0,0 -0.825,8.06 -0.746,8.41 0.077,0.34 6.632,5.11 6.632,5.11"
     id="path701" />
  <path
     style="font-variation-settings:normal;fill:none;stroke:#ff0000;-inkscape-stroke:none"
     d="m 380.033,744.423 c 0,0 0.963,24.822 -0.531,33.704 -1.494,8.883 -7.171,27.689 -7.171,27.689 0,0 4.536,-1.404 6.832,-0.858 2.296,0.547 4.687,2.783 4.687,2.783 0,0 8.767,-9.997 17.917,-15.348 9.15,-5.349 35.395,-23.955 35.395,-23.955"
     id="path699" />
  <path
     style="font-variation-settings:normal;fill:none;stroke:#ff0000;-inkscape-stroke:none"
     d="m 334.108,819.247 c 0,0 9.841,-7.423 14.296,-8.615 4.455,-1.191 14.821,-1.14 14.821,-1.14 0,0 -3.398,-6.272 -4.124,-9.822 -0.726,-3.55 -5.315,-41.253 -5.315,-41.253"
     id="path138" />
  <path
     style="font-variation-settings:normal;fill:none;stroke:#ff0000;-inkscape-stroke:none"
     d="m 271.447,1050.22 c 0.053,-0.8 0.468,-16.18 0.468,-16.18 l 16.859,-26.57 7.402,-11.426 6.029,-13 12.331,-35.718 10.477,-37.048 4.857,-17.064"
     id="path713" />
  <path
     style="font-variation-settings:normal;fill:none;stroke:#ff0000;-inkscape-stroke:none"
     d="m 248.2,995.958 c 0,0 18.241,-18.304 21.407,-23.082 3.166,-4.776 8.299,-13.634 8.299,-13.634"
     id="path711" />
  <path
     style="font-variation-settings:normal;fill:none;stroke:#ff0000;-inkscape-stroke:none"
     d="m 121.019,969.016 13.333,-25.368 17.853,-16.787 7.351,-2.203 11.725,53.142 9.319,19.047 4.54,6.033 41.659,-15.296 4.913,21.826 7.974,31.22 4.391,10.07 15.892,-2.43"
     id="path140" />
  <path
     style="font-variation-settings:normal;fill:none;stroke:#ff0000;-inkscape-stroke:none"
     d="m 427.816,1008.88 70.175,10.89 72.678,6.11 15.367,1.31"
     id="path725" />
  <path
     style="font-variation-settings:normal;fill:none;stroke:#ff0000;-inkscape-stroke:none"
     d="m 304.011,980.11 14.224,6.121 10.84,3.525"
     id="path723" />
  <path
     style="font-variation-settings:normal;fill:none;stroke:#ff0000;-inkscape-stroke:none"
     d="m 311.979,954.986 15.239,5.876 10.877,2.242"
     id="path721" />
  <path
     style="font-variation-settings:normal;fill:none;stroke:#ff0000;-inkscape-stroke:none"
     d="m 152.874,842.734 c 0.342,0.552 15.871,16.707 15.871,16.707 l 30.538,26.49 15.394,12.871"
     id="path719" />
  <path
     style="font-variation-settings:normal;fill:none;stroke:#ff0000;-inkscape-stroke:none"
     d="m 145.465,857.943 1.14,8.172 32.221,32.207 38.469,32.228 22.182,15.938 9.54,4.398"
     id="path717" />
  <path
     style="font-variation-settings:normal;fill:none;stroke:#ff0000;-inkscape-stroke:none"
     d="m 274.462,1035.54 17.881,-12.01 8.96,29.24 7.955,18.56 5.275,3.86 33.882,-23.52 3.976,7.15 7.097,1.14 16.074,-10.19 8.899,25.08 14.308,23.01 15.603,-6.36 40.363,-26.87 22.056,36.08 14.274,17.3 26.196,-26.05"
     id="path142" />
  <path
     style="font-variation-settings:normal;fill:none;stroke:#ff0000;-inkscape-stroke:none"
     d="m 372.324,885.663 -10.101,84.802 12.331,27.056 5.972,13.989 8.512,3.1 20.307,-1.83 47.757,-11.44 5.468,-2.873 4.798,-11.272"
     id="path731" />
  <path
     style="font-variation-settings:normal;fill:none;stroke:#ff0000;-inkscape-stroke:none"
     d="m 375.57,1049.82 16.155,-7.69 7.314,-4.59 0.04,-20.73"
     id="path729" />
  <path
     style="font-variation-settings:normal;fill:none;stroke:#ff0000;-inkscape-stroke:none"
     d="m 358.664,901.371 -37.161,113.129 -8.415,22.22 1.91,23.24 -0.185,10.37 17.312,-15.32 11.989,-8.46 8.671,0.57 1.188,2.11 -1.152,-22.15 -0.107,-27.335 4.193,-29.591 2.091,-18.554"
     id="path144" />
  <path
     style="font-variation-settings:normal;fill:none;stroke:#ff0000;-inkscape-stroke:none"
     d="m 718.545,182.207 c 0,0 14.233,32.265 17.276,58.001"
     id="path751" />
  <path
     style="font-variation-settings:normal;fill:none;stroke:#ff0000;-inkscape-stroke:none"
     d="m 273.414,440.822 c 0,0 53.116,-32.961 88.406,-6.825"
     id="path749" />
  <path
     style="font-variation-settings:normal;fill:none;stroke:#ff0000;-inkscape-stroke:none"
     d="m 485.734,441.511 c 0,0 30.322,-34.162 88.7,-9.307"
     id="path747" />
  <path
     style="font-variation-settings:normal;fill:none;stroke:#ff0000;-inkscape-stroke:none"
     d="m 491.686,416.067 c 0,0 19.129,-17.972 67.563,-0.727"
     id="path745" />
  <path
     style="font-variation-settings:normal;fill:none;stroke:#ff0000;-inkscape-stroke:none"
     d="m 307.396,418.164 c 0,0 33.777,-16.746 54.127,-6.886"
     id="path743" />
  <path
     style="font-variation-settings:normal;fill:none;stroke:#ff0000;-inkscape-stroke:none"
     d="m 194.425,633.44 c 0,-0.489 3.808,-11.87 3.808,-11.87 l 2.43,-12.438"
     id="path741" />
  <path
     style="font-variation-settings:normal;fill:none;stroke:#ff0000;-inkscape-stroke:none"
     d="m 725.146,814.234 c -0.106,-1.694 2.348,-32.569 2.492,-33.329 0.143,-0.76 0.988,-21.911 0.988,-21.911 l 1.995,60.842"
     id="path739" />
  <path
     style="font-variation-settings:normal;fill:none;stroke:#ff0000;-inkscape-stroke:none"
     d="m 519.217,1196.41 12.992,-24.63 4.329,-7.81"
     id="path737" />
  <path
     style="font-variation-settings:normal;fill:none;stroke:#ff0000;-inkscape-stroke:none"
     d="m 392.326,815.952 -5.746,-0.185 -5.298,5.926 -2.479,12.738 -4.699,5.878 -6.738,-2.927 -8.742,-5.999 2.719,-15.318 8.655,-9.183"
     id="path735" />
  <path
     style="font-variation-settings:normal;fill:none;stroke:#ff0000;-inkscape-stroke:none"
     d="m 381.841,998.594 3.537,4.746 5.5,-24.179 3.719,-34.905 -10.516,-21.992 -8.192,-29.85"
     id="path146" />
</svg>
