<?xml version="1.0" encoding="UTF-8" standalone="no"?>
<svg
   width="900"
   height="1200"
   version="1.1"
   viewBox="0 0 900 1200"
   id="svg310"
   sodipodi:docname="cover_98698741_p0.svg"
   inkscape:version="1.2 (dc2aedaf03, 2022-05-15)"
   xmlns:inkscape="http://www.inkscape.org/namespaces/inkscape"
   xmlns:sodipodi="http://sodipodi.sourceforge.net/DTD/sodipodi-0.dtd"
   xmlns="http://www.w3.org/2000/svg"
   xmlns:svg="http://www.w3.org/2000/svg">
  <defs
     id="defs314" />
  <sodipodi:namedview
     id="namedview312"
     pagecolor="#ffffff"
     bordercolor="#666666"
     borderopacity="1.0"
     inkscape:pageshadow="2"
     inkscape:pageopacity="0.0"
     inkscape:pagecheckerboard="0"
     showgrid="false"
     inkscape:zoom="0.53166667"
     inkscape:cx="451.41066"
     inkscape:cy="600"
     inkscape:window-width="1920"
     inkscape:window-height="1015"
     inkscape:window-x="0"
     inkscape:window-y="36"
     inkscape:window-maximized="1"
     inkscape:current-layer="svg310"
     inkscape:showpageshadow="0"
     inkscape:deskcolor="#d1d1d1" />
  <g
     fill="none"
     stroke="#000000"
     stroke-linejoin="round"
     stroke-width="0.93"
     id="g308">
    <path
       d="M 133.73 1.58462 C 124.029 11.3681 102.299 10.9807 108.084 28.0677 C 92.95 24.0839 61.3507 22.4357 59.5081 30.16 C 57.4282 38.8742 58.7911 54.5233 62.6361 65.1926 C 56.1297 73.4869 44.191 86.4217 41.8096 103.91 C 41.8096 116.175 47.2007 121.326 48.1994 125.997 C 47.3775 131.775 44.1649 140.875 46.4263 148.471 C 49.0168 156.319 55.134 162.257 53.5633 166.332 C 51.9924 170.407 44.066 170.168 45.363 180.723 C 46.6867 192.299 55.7144 185.049 54.6511 190.601 C 53.5877 196.153 48.9172 209.944 55.1554 216.055 C 63.9243 223.812 67.2938 224.395 67.0439 239.644 C 67.6923 248.244 75.4567 258.513 82.5379 259.25 C 88.7823 272.424 105.615 283.197 119.366 282.119 C 131.471 290.045 141.046 289.345 151.155 294.574 C 161.902 293.73 167.774 284.996 173.462 284.996 C 178.773 286.72 191.938 291.925 197.722 294.007 C 208.667 292.761 214.524 286.416 220.077 283.33 C 231.079 290.525 236.444 278.476 247.381 276.469 C 254.717 276.073 264.857 274.825 273.991 271.614 C 283.534 269.931 291.174 263.081 294.756 257.015 C 302.508 256.581 310.06 254.7 325.053 245.202 C 335.83 243.201 342.408 237.477 347.103 228.245 C 355.799 227.978 364.298 217.147 369.26 211.845 C 379.878 207.212 393.736 194.339 393.533 177.264 C 393.476 172.476 391.376 167.815 391.461 160.899 C 391.495 158.224 396.383 156.89 396.507 154.057 C 397.204 138.101 394.187 122.681 392.292 114.966 C 392.062 110.692 392.403 92.9723 385.492 84.1845 C 387.433 77.0875 384.371 70.8371 381.312 65.4607 C 374.404 55.9294 366.289 50.4239 358.512 40.1232 C 355.74 36.4515 349.565 31.0447 343.186 24.6904 C 340.958 12.4655 328.866 1.38084 328.866 1.38084"
       id="path2" />
    <path
       d="M 453.121 4.1718 C 477.843 21.6972 493.277 36.4926 501.289 93.2656"
       id="path4" />
    <path
       d="M 489.406 0.880355 C 515.422 49.5089 513.966 76.4756 509.5 86.3229 C 505.415 95.3301 489.404 119.659 464.297 118.753 C 438.901 117.837 428.08 110.225 421.622 105.181 C 415.164 100.137 393.384 90.8954 388.539 82.5974"
       id="path6" />
    <path
       d="M 589.05 1.03184 C 613.11 43.9551 608.088 103.771 601.78 122.915 C 595.472 142.057 582.61 168.738 544.882 169.78 C 520.9 170.442 479.266 157.305 455.483 147.974 C 431.699 138.644 411.8 126.871 394.696 113.149"
       id="path8" />
    <path
       d="M 267.336 283.607 C 242.656 322.546 239.84 360.705 256.795 380.985 C 278.656 407.134 353.648 401.504 388.529 361.681"
       id="path10" />
    <path
       d="M 267.336 283.607 C 218.757 335.879 235.113 374.958 255.437 396.209 C 277.861 419.658 337.206 413.033 388.53 361.681"
       id="path12" />
    <path
       d="M 306.684 323.426 C 288.029 331.64 256.043 351.72 248.507 357.277"
       id="path14" />
    <path
       d="M 348.652 339.364 C 322.952 345.46 306.197 351.223 297.165 355.59 C 288.135 359.957 272.651 367.931 258.565 379.893"
       stop-color="#000000"
       style="font-variation-settings:normal"
       id="path16" />
    <path
       d="M 236.156 366.64 C 174.878 416.198 162.094 469.149 169.26 508.108"
       stop-color="#000000"
       style="font-variation-settings:normal"
       id="path18" />
    <path
       d="M 248.087 389.518 C 194.309 441.273 172.451 461.22 169.26 508.116"
       stop-color="#000000"
       style="font-variation-settings:normal"
       id="path20" />
    <path
       d="M 260.155 402.846 C 243.237 416.186 233.346 450.214 226.126 477.554 C 209.39 540.927 213.236 579.724 217.883 587.075"
       stop-color="#000000"
       style="font-variation-settings:normal"
       id="path22" />
    <path
       d="M 257.017 479.835 C 213.962 520.508 217.885 587.102 217.885 587.102"
       stop-color="#000000"
       style="font-variation-settings:normal"
       id="path24" />
    <path
       d="M 264.165 456.047 C 264.165 456.047 244.756 512.583 256.437 559.516 C 268.118 606.449 296.623 673.813 327.109 686.745"
       stop-color="#000000"
       style="font-variation-settings:normal"
       id="path26" />
    <path
       d="M 357.151 400.241 C 357.151 400.241 338.563 409.135 320.972 470.977 C 303.381 532.817 293.772 535.57 291.153 590.096 C 288.534 644.626 312.37 668.519 327.106 686.73"
       stop-color="#000000"
       style="font-variation-settings:normal"
       id="path28" />
    <path
       d="M 406.641 384.232 C 406.641 384.232 378.91 406.195 358.073 432.845 C 350.432 442.617 331.729 463.087 318.129 483.618"
       stop-color="#000000"
       style="font-variation-settings:normal"
       id="path30" />
    <path
       d="M 418.572 346.855 C 406.316 370.457 402.168 396.061 403.405 427.064 C 404.641 458.069 410.645 473.057 417.79 480.22 C 425.613 500.982 433.629 521.414 461.971 546.255"
       stop-color="#000000"
       style="font-variation-settings:normal"
       id="path32" />
    <path
       d="M 421.933 424.52 C 421.933 424.52 416.462 434.793 415.987 449.694 C 415.512 464.594 417.295 474.314 417.295 474.314"
       stop-color="#000000"
       style="font-variation-settings:normal"
       id="path34" />
    <path
       d="M 498.657 447.061 C 498.657 447.061 479.285 463.604 469.259 487.545 C 459.234 511.485 452.825 529.796 461.993 545.504"
       stop-color="#000000"
       style="font-variation-settings:normal"
       id="path36" />
    <path
       d="M 492.993 453.065 C 492.993 453.065 497.767 503.502 502.928 512.688"
       stop-color="#000000"
       style="font-variation-settings:normal"
       id="path38" />
    <path
       d="M 541.814 384.269 C 541.814 384.269 527.352 420.293 524.194 430.263 C 521.037 440.232 513.397 463.6 510.324 476.49 C 507.251 489.379 503.247 504.838 502.943 512.687"
       stop-color="#000000"
       style="font-variation-settings:normal"
       id="path40" />
    <path
       d="M 538.492 397.749 C 538.492 397.749 542.826 402.94 545.263 408.394 C 547.7 413.848 552.646 429.539 557.208 445.03 C 559.873 454.082 563.048 466.969 566.449 484.899 C 569.894 503.055 570.41 522.812 570.41 522.812"
       stop-color="#000000"
       style="font-variation-settings:normal"
       id="path42" />
    <path
       d="M 579.497 404.621 C 579.497 404.621 583.405 431.104 582.257 455.727 C 581.108 480.349 584.372 493.496 570.412 522.822"
       stop-color="#000000"
       style="font-variation-settings:normal"
       id="path44" />
    <path
       d="M 589.654 374.199 C 589.654 374.199 607.516 405.999 613.135 456.146 C 617.139 491.878 610.972 572.403 591.5 607.544 C 591.396 607.731 591.274 607.907 591.188 608.101 C 577.41 639.017 558.919 662.435 529.971 676.741"
       stop-color="#000000"
       style="font-variation-settings:normal"
       id="path46" />
    <path
       d="M 582.14 460.201 C 582.14 460.201 586.475 496.541 591.023 510.253 C 595.57 523.965 599.687 547.872 607.381 556.031"
       stop-color="#000000"
       style="font-variation-settings:normal"
       id="path48" />
    <path
       d="M 307.401 529.222 L 317.903 565.229"
       stop-color="#000000"
       style="font-variation-settings:normal"
       id="path50" />
    <path
       d="M 315.636 559.844 C 303.284 576.756 306.516 586.361 307.861 590.864 C 309.206 595.367 315.192 607.638 322.737 607.897"
       stop-color="#000000"
       style="font-variation-settings:normal"
       id="path52" />
    <path
       d="M 321.093 588.012 C 323.107 598.224 321.391 631.377 327.485 643.063 C 335.326 658.099 359.968 679.48 384.757 694.436 C 409.547 709.392 432.755 717.015 432.755 717.015"
       stop-color="#000000"
       style="font-variation-settings:normal"
       id="path54" />
    <path
       d="M 569.831 660.96 C 569.831 660.96 553.716 678.011 544.765 685.21 C 535.814 692.409 530.327 699.679 500.244 708.068 C 470.161 716.457 444.438 717.9 444.438 717.9"
       stop-color="#000000"
       style="font-variation-settings:normal"
       id="path56" />
    <path
       d="M 634.133 583.33 C 610.141 621.869 603.695 631.105 590.609 644.671 C 577.628 658.13 551.866 671.052 529.962 676.749"
       stop-color="#000000"
       style="font-variation-settings:normal"
       id="path58" />
    <path
       d="M 533.583 258.569 C 533.583 258.569 522.168 247.986 480.711 249.393 C 439.252 250.801 402.79 258.68 373.489 271.097 C 344.189 283.515 323.434 297.499 314.311 313.439"
       stop-color="#000000"
       style="font-variation-settings:normal"
       id="path60" />
    <path
       d="M 502.81 296.678 C 502.81 296.678 485.603 287.041 454.435 286.867 C 423.267 286.693 403.163 287.307 375.717 294.104 C 348.269 300.902 317.785 317.159 317.785 317.159"
       stop-color="#000000"
       style="font-variation-settings:normal"
       id="path62" />
    <path
       d="M 536.189 265.619 C 536.189 265.619 526.462 271.201 523.432 278.728"
       stop-color="#000000"
       style="font-variation-settings:normal"
       id="path64" />
    <path
       d="M 550.612 261.126 C 560.986 260.001 571.948 259.356 598.538 269.649 C 621.492 278.534 679.28 307.37 706.689 360.253 C 732.797 410.63 748.147 494.826 749.038 523.862 C 749.911 552.314 752.64 615.935 763.783 647.036 C 777.788 686.124 788.955 713.155 830.214 742.451"
       stop-color="#000000"
       style="font-variation-settings:normal"
       id="path66" />
    <path
       d="M 898.099 616.972 C 857.09 631.563 816.946 621.944 807.684 618.9 C 798.422 615.855 762.718 603.392 751.972 572.797"
       stop-color="#000000"
       style="font-variation-settings:normal"
       id="path68" />
    <path
       d="M 895.078 629.092 C 867.411 639.654 852.517 641.144 827.431 642.268 C 806.361 643.212 784.428 640.061 756.759 620.241"
       stop-color="#000000"
       style="font-variation-settings:normal"
       id="path70" />
    <path
       d="M 804.874 720.165 C 804.874 720.165 822.49 704.984 857.267 703.73 C 892.044 702.477 897.336 707.794 897.336 707.794"
       stop-color="#000000"
       style="font-variation-settings:normal"
       id="path72" />
    <path
       d="M 859.019 757.583 C 859.019 757.583 867.033 747.425 874.852 741.349 C 882.672 735.273 894.981 733.575 898.455 734.057"
       stop-color="#000000"
       style="font-variation-settings:normal"
       id="path74" />
    <path
       d="M 595.657 631.056 C 595.657 631.056 600.866 664.111 610.802 682.218 C 620.737 700.324 625.635 715.542 635.68 725.458 C 645.724 735.375 658.452 757.13 661.89 762.806 C 665.328 768.481 674.532 793.69 674.45 795.956"
       stop-color="#000000"
       style="font-variation-settings:normal"
       id="path76" />
    <path
       d="M 804.686 49.4467 C 804.686 49.4467 830.329 33.8541 844.732 29.902 C 859.136 25.9499 879.272 22.4742 883.052 22.5516"
       stop-color="#000000"
       style="font-variation-settings:normal"
       id="path78" />
    <path
       d="M 845.993 9.39977 C 845.993 9.39977 845.595 21.067 845.186 36.1932 C 844.778 51.3195 845.344 66.8391 845.344 66.8391"
       stop-color="#000000"
       style="font-variation-settings:normal"
       id="path80" />
    <path
       d="M 868.723 43.6961 C 857.483 57.056 832.443 88.175 827.322 85.5735 C 822.2 82.9716 824.769 69.2685 825.91 65.5048 C 827.05 61.741 838.551 47.1302 849.088 45.6188 C 859.624 44.1073 868.604 44.2222 870.674 58.5327 C 872.743 72.8434 867.367 102.713 859.586 113.607 C 851.805 124.5 847.133 125.918 843.945 124.978 C 840.756 124.038 834.688 116.517 840.343 105.3 C 845.997 94.083 859.105 90.5844 871.861 93.1164 C 884.618 95.6487 887.908 99.1653 887.908 99.1653"
       stop-color="#000000"
       style="font-variation-settings:normal"
       id="path82" />
    <path
       d="M 864.192 64.5914 C 864.192 64.5914 876.728 63.867 882.249 67.8937"
       stop-color="#000000"
       style="font-variation-settings:normal"
       id="path84" />
    <path
       d="M 856.867 79.6266 C 856.867 79.6266 872.471 82.5772 882.869 81.9919"
       stop-color="#000000"
       style="font-variation-settings:normal"
       id="path86" />
    <path
       d="M 809.745 64.4177 C 809.745 64.4177 790.26 102.659 801.675 123.411 C 813.09 144.161 824.126 148.792 840.532 146.905 C 856.936 145.017 866.442 141.236 871.589 137.074 C 876.736 132.912 883.909 127.855 885.368 124.142"
       stop-color="#000000"
       style="font-variation-settings:normal"
       id="path88" />
    <path
       d="M 814.503 99.0947 C 814.503 99.0947 811.515 109.165 811.515 111.129"
       stop-color="#000000"
       style="font-variation-settings:normal"
       id="path90" />
    <path
       d="M 819.676 107.552 L 819.858 113.652"
       stop-color="#000000"
       style="font-variation-settings:normal"
       id="path92" />
    <path
       d="M 135.874 70.6516 C 135.874 70.6516 131.789 76.4247 136.727 78.6117 C 141.665 80.7984 143.989 78.1741 144.804 76.4169"
       stop-color="#000000"
       style="font-variation-settings:normal"
       id="path94" />
    <path
       d="M 213.739 35.3576 C 213.739 35.3576 212.76 41.2962 217.16 41.5892 C 221.56 41.882 222.559 38.5814 222.559 38.5814"
       stop-color="#000000"
       style="font-variation-settings:normal"
       id="path96" />
    <path
       d="M 184.039 72.9208 C 188.449 72.2274 187.058 77.7327 186.793 80.8338 C 186.528 83.9348 185.172 94.6841 188.057 95.6843 C 190.942 96.6844 194.196 97.6557 195.594 94.6745 C 196.993 91.6932 189.841 82.2476 188.216 80.8022 C 186.591 79.3568 182.487 78.0463 182.737 74.543"
       stop-color="#000000"
       style="font-variation-settings:normal"
       id="path98" />
    <path
       d="M 665.396 572.191 C 652.198 589.609 651.611 604.967 655.495 663.188 C 658.118 702.513 668.947 736.389 677.331 783.183 C 680.427 800.466 672.184 832.793 660.996 851.525"
       stop-color="#000000"
       style="font-variation-settings:normal"
       id="path100" />
    <path
       d="M 716.332 650.916 C 715.926 651.417 716.856 682.238 733.132 713.093 C 744.021 733.734 754.091 756.529 772.453 772.977"
       stop-color="#000000"
       style="font-variation-settings:normal"
       id="path102" />
    <path
       d="M 686.956 707.402 C 690.925 723.886 696.012 743.132 702.718 759.373 C 721.59 805.075 757.362 825.483 778.627 818.245"
       stop-color="#000000"
       style="font-variation-settings:normal"
       id="path104" />
    <path
       d="M 795.322 820.261 C 795.322 820.261 784.383 800.7 781.81 787.932 C 779.237 775.165 764.45 723.804 770.185 721.524 C 775.921 719.242 794.13 755.929 794.821 762.57 C 805.286 769.184 830.933 802.341 831.624 815.027"
       stop-color="#000000"
       style="font-variation-settings:normal"
       id="path106" />
    <path
       d="M 788.261 742.933 C 788.261 742.933 786.975 729.988 800.521 728.858 C 814.067 727.729 820.228 741.926 820.208 756.369 C 820.197 763.717 819.846 768.121 814.964 767.34 C 810.082 766.56 798.986 757.836 801.916 738.995"
       stop-color="#000000"
       style="font-variation-settings:normal"
       id="path108" />
    <path
       d="M 819.562 744.33 C 827.054 733.567 832.285 745.123 833.307 747.125 C 834.329 749.128 843.646 761.596 840.455 764.076 C 837.263 766.556 827.356 763.511 822.688 758.221"
       stop-color="#000000"
       style="font-variation-settings:normal"
       id="path110" />
    <path
       d="M 835.647 745.085 C 839.119 730.624 849.25 734.896 854.005 747.798 C 858.898 761.074 864.967 775.061 861.603 777.715 C 858.239 780.369 847.963 774.123 844.349 768.594"
       stop-color="#000000"
       style="font-variation-settings:normal"
       id="path112" />
    <path
       d="M 864.306 753.203 C 864.306 753.203 884.47 774.69 884.231 778.697 C 883.993 782.704 867.453 780.009 864.337 777.067"
       stop-color="#000000"
       style="font-variation-settings:normal"
       id="path114" />
    <path
       d="M 883.713 778.727 C 883.713 778.727 892.564 786.544 898.557 787.798"
       stop-color="#000000"
       style="font-variation-settings:normal"
       id="path116" />
    <path
       d="M 860.265 782.126 C 870.93 811.113 868.146 825.022 865.531 831.792 C 862.915 838.561 854.561 845.446 847.21 847.114"
       stop-color="#000000"
       style="font-variation-settings:normal"
       id="path118" />
    <path
       d="M 785.731 809.009 C 785.836 809.043 778.136 815.299 771.015 838.862 C 764.111 861.712 767.446 867.23 767.962 874.202"
       stop-color="#000000"
       style="font-variation-settings:normal"
       id="path120" />
    <path
       d="M 792.641 825.849 C 806.867 847.646 840.669 860.689 848.749 862.289"
       stop-color="#000000"
       style="font-variation-settings:normal"
       id="path122" />
    <path
       d="M 845.2 850.241 C 845.2 850.241 842.265 856.402 846.419 861.329"
       stop-color="#000000"
       style="font-variation-settings:normal"
       id="path124" />
    <path
       d="M 855.168 850.43 C 856.431 851.438 857.227 860.208 851.213 865.384 C 845.289 870.483 837.568 870.007 837.568 870.007"
       stop-color="#000000"
       style="font-variation-settings:normal"
       id="path126" />
    <path
       d="M 859.208 840.424 C 859.136 840.345 869.547 851.882 863.282 874.38 C 858.732 890.717 847.152 896.248 847.152 896.248 C 847.152 896.248 858.621 918.57 853.635 927.6 C 848.648 936.631 830.516 952.444 814.872 955.888 C 814.758 959.754 812.192 975.756 805.411 994.133 C 799.514 1010.11 787.022 1024.92 774.02 1042.67 C 755.952 1067.33 729.941 1098.66 729.941 1098.66"
       stop-color="#000000"
       style="font-variation-settings:normal"
       id="path128" />
    <path
       d="M 724.903 1094.2 C 724.903 1094.2 708.839 1119.15 687.272 1130.79 C 665.705 1142.43 641.898 1141.2 631.975 1135.86"
       stop-color="#000000"
       style="font-variation-settings:normal"
       id="path130" />
    <path
       d="M 789.809 979.071 C 789.809 979.071 704.378 1055.72 686.492 1060"
       stop-color="#000000"
       style="font-variation-settings:normal"
       id="path132" />
    <path
       d="M 761.302 1003.31 C 761.302 1003.31 742.602 1010.54 727.767 1022.11 C 712.931 1033.68 702.779 1044.34 702.779 1044.34"
       stop-color="#000000"
       style="font-variation-settings:normal"
       id="path134" />
    <path
       d="M 781.464 879.805 C 781.464 879.805 786.981 890.889 799.104 892.701 C 811.226 894.512 820.241 892.082 821.381 894.472 C 822.178 896.142 816.723 902.027 805.169 900.965 C 793.615 899.903 788.852 895.863 788.852 895.863"
       stop-color="#000000"
       style="font-variation-settings:normal"
       id="path136" />
    <path
       d="M 331.08 451.743 C 331.08 451.743 357.937 437.575 375.249 435.915 C 392.562 434.254 398.693 434.304 401.939 435.102"
       stop-color="#000000"
       style="font-variation-settings:normal"
       id="path138" />
    <path
       d="M 527.731 448.798 C 527.731 448.798 549.997 450.108 565.295 457.776 C 580.592 465.443 589.192 471.723 592.439 476.518"
       stop-color="#000000"
       style="font-variation-settings:normal"
       id="path140" />
    <path
       d="M 400.449 704.344 C 400.449 704.344 405.101 719.613 402.82 728.412 C 400.54 737.211 395.462 746.535 395.462 746.535"
       stop-color="#000000"
       style="font-variation-settings:normal"
       id="path142" />
    <path
       d="M 504.698 707.591 C 494.217 729.776 505.017 745.379 505.017 745.379"
       stop-color="#000000"
       style="font-variation-settings:normal"
       id="path144" />
    <path
       d="M 397.843 708.724 C 397.843 708.724 370.099 710.623 358.152 715.112 C 346.205 719.601 324.769 717.302 321.904 717.302 C 319.039 717.302 320.083 720.896 317.644 722.26 C 315.204 723.625 305.765 720.091 297.436 725.96 C 289.107 731.829 275.147 743.659 275.147 743.659"
       stop-color="#000000"
       style="font-variation-settings:normal"
       id="path146" />
    <path
       d="M 396.559 735.683 C 372.293 765.436 375.853 784.312 375.853 784.312 C 375.853 784.312 361.565 781.785 337.212 784.265 C 312.857 786.745 303.048 790.341 303.048 790.341 C 303.048 790.341 310.006 765.145 313.871 758.066 C 317.735 750.987 328.627 721.937 328.627 721.937"
       stop-color="#000000"
       style="font-variation-settings:normal"
       id="path148" />
    <path
       d="M 375.838 784.316 L 376.199 793.928 C 376.199 793.928 347.706 794.66 331.172 797.114 C 314.638 799.569 299.61 806.2 299.61 806.2 L 303.032 790.345 L 290.055 794.794 C 290.055 794.794 301.848 759.862 304.746 754.555 C 307.644 749.248 317.499 723.412 317.499 723.412"
       stop-color="#000000"
       style="font-variation-settings:normal"
       id="path150" />
    <path
       d="M 376.197 793.906 C 400.813 787.999 414.192 785.583 425.897 792.097 C 437.602 798.611 454.769 808.413 454.769 808.413"
       stop-color="#000000"
       style="font-variation-settings:normal"
       id="path152" />
    <path
       d="M 504.434 727.15 C 510.277 755.181 501.547 756.307 492.793 766.365 C 484.039 776.424 465.998 797.311 465.998 797.311 C 465.998 797.311 492.847 805.991 505.708 813.128 C 518.568 820.265 537.608 832.153 537.608 832.153 C 537.608 832.153 553.916 805.869 563.092 796.015 C 572.268 786.161 597.602 760.514 597.602 760.514"
       stop-color="#000000"
       style="font-variation-settings:normal"
       id="path154" />
    <path
       d="M 465.996 797.342 L 454.779 808.434 C 454.779 808.434 499.972 831.229 508.471 836.086 C 516.97 840.942 535.742 852.632 544.295 858.335 C 554.539 838.646 578.76 794.392 599.033 777.397"
       stop-color="#000000"
       style="font-variation-settings:normal"
       id="path156" />
    <path
       d="M 529.694 848.844 C 530.048 848.034 537.59 832.179 537.59 832.179 L 552.27 843.335"
       stop-color="#000000"
       style="font-variation-settings:normal"
       id="path158" />
    <path
       d="M 504.283 713.519 C 504.283 713.519 512.196 715.925 519.233 721.507 C 526.27 727.09 542.377 737.951 559.789 739.878 C 577.202 741.805 602.772 755.576 609.644 764.091"
       stop-color="#000000"
       style="font-variation-settings:normal"
       id="path160" />
    <path
       d="M 291.739 674.78 C 258.465 733.629 280.978 785.293 288.89 798.528"
       stop-color="#000000"
       style="font-variation-settings:normal"
       id="path162" />
    <path
       d="M 256.511 617.161 C 256.511 617.161 243.578 632.637 242.283 665.699 C 240.989 698.759 246.98 733.399 257.477 753.852 C 267.973 774.309 285.139 803.127 300.374 815.458"
       stop-color="#000000"
       style="font-variation-settings:normal"
       id="path164" />
    <path
       d="M 1.22861 372.572 C 1.22861 372.572 56.4308 376.193 83.458 399.415 C 53.1617 394.366 30.8988 388.94 1.71569 397.052"
       stop-color="#000000"
       style="font-variation-settings:normal"
       id="path166" />
    <path
       d="M 0.641816 477.721 C 106.534 465.921 125.859 502.183 125.859 502.183 C 125.859 502.183 64.8493 480.215 0.849485 513.895"
       stop-color="#000000"
       style="font-variation-settings:normal"
       id="path168" />
    <path
       d="M 1.4652 597.262 C 1.4652 597.262 35.4017 639.861 62.3424 639.11"
       stop-color="#000000"
       style="font-variation-settings:normal"
       id="path170" />
    <path
       d="M 207.078 546.742 C 190.698 561.834 176.313 580.374 120.379 615.836 C 72.6071 646.123 25.3908 659.563 1.83353 659.688"
       stop-color="#000000"
       style="font-variation-settings:normal"
       id="path172" />
    <path
       d="M 226.222 634.643 C 184.982 670.719 85.3354 691.231 52.0592 692.983"
       stop-color="#000000"
       style="font-variation-settings:normal"
       id="path174" />
    <path
       d="M 209.586 679.952 C 174.853 686.29 160.262 695.34 137.713 698.208 C 115.165 701.077 66.2751 710.373 33.9278 704.355"
       stop-color="#000000"
       style="font-variation-settings:normal"
       id="path176" />
    <path
       d="M 1.20652 723.563 C 1.20652 723.563 41.0903 724.072 45.9686 724.322 C 50.8473 724.572 87.948 729.183 96.5266 726.134"
       stop-color="#000000"
       style="font-variation-settings:normal"
       id="path178" />
    <path
       d="M 1.58339 833.854 L 25.9214 858.71 C 25.9214 858.71 4.13545 831.135 2.75653 814.485 C 1.3852 797.925 3.54424 765.116 8.71399 754.604 C 13.8887 744.082 42.2703 726.814 42.2703 726.814"
       stop-color="#000000"
       style="font-variation-settings:normal"
       id="path180" />
    <path
       d="M 109.803 719.183 C 109.803 719.183 88.8355 754.325 91.9551 799.823 C 95.0748 845.321 102.601 865.62 102.601 865.62 C 102.601 865.62 100.986 844.871 111.86 824.029 C 122.733 803.189 160.25 746.754 206.957 737.069"
       stop-color="#000000"
       style="font-variation-settings:normal"
       id="path182" />
    <path
       d="M 183.884 751.24 C 183.884 751.24 174.537 766.391 173.852 795.458 C 173.208 822.793 177.912 837.781 177.935 837.777"
       stop-color="#000000"
       style="font-variation-settings:normal"
       id="path184" />
    <path
       d="M 260.872 759.622 C 260.872 759.622 249.236 775.28 230.21 789.03 C 211.183 802.78 183.42 825.768 177.775 841.736 C 164.929 851.995 135.841 876.951 121.048 907.7"
       stop-color="#000000"
       style="font-variation-settings:normal"
       id="path186" />
    <path
       d="M 1.29986 971.293 C 12.7439 965.171 25.1293 966.297 44.1137 964.262 C 65.2732 961.994 67.7796 962.864 73.3406 963.734"
       stop-color="#000000"
       style="font-variation-settings:normal"
       id="path188" />
    <path
       d="M 46.3691 964.232 C 46.3691 964.232 50.831 952.434 59.1626 943.834 C 67.4943 935.233 83.9055 918.285 88.4002 913.711 C 92.8949 909.137 124.802 884.031 134.944 885.484"
       stop-color="#000000"
       style="font-variation-settings:normal"
       id="path190" />
    <path
       d="M 57.1377 962.76 C 57.8593 961.787 67.7243 950.18 67.7243 950.18"
       stop-color="#000000"
       style="font-variation-settings:normal"
       id="path192" />
    <path
       d="M 81.046 961.929 C 81.046 961.929 105.287 943.885 136.83 938.251 C 168.371 932.617 186.104 928.472 193.44 928.652"
       stop-color="#000000"
       style="font-variation-settings:normal"
       id="path194" />
    <path
       d="M 87.9142 978.467 C 87.9142 978.467 124.288 954.331 139.945 949.567 C 155.604 944.802 184.79 934.943 194.569 934.739"
       stop-color="#000000"
       style="font-variation-settings:normal"
       id="path196" />
    <path
       d="M 92.3244 1009.43 C 92.3244 1009.43 118.708 981.789 147.742 967.385 C 178.719 952.018 188.041 945.647 202.234 941.266"
       stop-color="#000000"
       style="font-variation-settings:normal"
       id="path198" />
    <path
       d="M 1.78875 1090.91 C 1.78875 1090.91 62.1562 1064.23 75.7302 1052.8"
       stop-color="#000000"
       style="font-variation-settings:normal"
       id="path200" />
    <path
       d="M 57.032 1067.05 C 57.032 1067.05 82.1935 1058.4 92.7971 1057.41 C 103.401 1056.41 120.729 1054.3 128.7 1050.38 C 137.226 1046.19 151.881 1035.96 154.238 1031.81"
       stop-color="#000000"
       style="font-variation-settings:normal"
       id="path202" />
    <path
       d="M 140.02 1034.24 C 140.02 1034.24 166.33 1019.6 171.022 1016.56 C 175.715 1013.53 191.331 1001.77 198.89 999.705"
       stop-color="#000000"
       style="font-variation-settings:normal"
       id="path204" />
    <path
       d="M 285.457 801.193 L 231.414 889.573 L 225.228 943.533"
       stop-color="#000000"
       style="font-variation-settings:normal"
       id="path206" />
    <path
       d="M 302.38 812.596 L 272.882 880.259 L 251.969 939.418 L 236.539 997.123 C 236.539 997.123 233.532 1011.57 231.497 1024.55 C 229.462 1037.53 229.498 1066.54 229.498 1066.54 L 218.213 1069.69 L 198.323 1078.98"
       stop-color="#000000"
       style="font-variation-settings:normal"
       id="path208" />
    <path
       d="M 265.373 883.166 C 258.347 895.401 244.271 914.729 233.701 937.828 C 222.755 961.748 211.803 983.727 207.683 987.971 C 202.224 1001.57 193.596 1067.14 192.823 1084.67 C 196.944 1099.72 196.325 1110.27 196.325 1110.27"
       stop-color="#000000"
       style="font-variation-settings:normal"
       id="path210" />
    <path
       d="M 202.532 1099.93 C 202.532 1099.93 201.917 1107.75 188.803 1117.52 C 175.689 1127.29 134.866 1154.18 122.621 1164.25 C 110.376 1174.31 86.4787 1197.2 86.4787 1197.2"
       stop-color="#000000"
       style="font-variation-settings:normal"
       id="path212" />
    <path
       d="M 213.58 1195.95 C 213.58 1195.95 206.134 1178.87 208.282 1156.9 C 210.431 1134.93 212.049 1114.88 222.494 1093.12 C 232.939 1071.37 259.537 1040.23 281.261 1035.68 C 302.983 1031.13 333.854 1054.53 342.957 1068.11 C 352.06 1081.7 401.184 1126.1 435.816 1196.78"
       stop-color="#000000"
       style="font-variation-settings:normal"
       id="path214" />
    <path
       d="M 338.82 1060.25 C 338.82 1060.25 418.172 1076.34 440.434 1087.5"
       stop-color="#000000"
       style="font-variation-settings:normal"
       id="path216" />
    <path
       d="M 434.959 1089.85 C 434.959 1089.85 480.397 1118.24 485.578 1141.27"
       stop-color="#000000"
       style="font-variation-settings:normal"
       id="path218" />
    <path
       d="M 488.651 1159.78 L 526.203 1196.69"
       stop-color="#000000"
       style="font-variation-settings:normal"
       id="path220" />
    <path
       d="M 517.914 843.633 C 514.789 874.294 505.114 903.876 493.169 940.97 C 479.177 984.414 468.127 1090.1 462.315 1106.44"
       stop-color="#000000"
       style="font-variation-settings:normal"
       id="path222" />
    <path
       d="M 490.426 1153.85 C 490.426 1153.85 498.071 1148.14 498.933 1144.39 C 499.264 1142.94 500.103 1122.85 502.743 1098.05 C 506.968 1058.35 513.607 1007.37 513.607 1007.37"
       stop-color="#000000"
       style="font-variation-settings:normal"
       id="path224" />
    <path
       d="M 516.743 1038.24 L 556.914 968.888"
       stop-color="#000000"
       style="font-variation-settings:normal"
       id="path226" />
    <path
       d="M 558.126 951.319 C 558.126 951.319 547.023 928.059 550.229 902.056 C 553.435 876.054 565.905 834.013 575.972 820.767 C 588.265 804.59 593.339 811.177 585.775 824.284 C 575.376 842.304 559.044 878.965 550.84 903.376"
       stop-color="#000000"
       style="font-variation-settings:normal"
       id="path228" />
    <path
       d="M 566.584 943.314 C 566.584 943.314 561.78 960.185 562.411 971.209 C 563.041 982.234 569.726 1032.46 586.874 1067.44 C 604.023 1102.43 618.439 1131.99 625.206 1133.92"
       stop-color="#000000"
       style="font-variation-settings:normal"
       id="path230" />
    <path
       d="M 604.757 771.931 C 604.757 771.931 618.726 776.432 621.599 780.092 C 624.473 783.752 627.833 789.458 627.833 789.458"
       stop-color="#000000"
       style="font-variation-settings:normal"
       id="path232" />
    <path
       d="M 631.225 800.665 C 631.225 800.665 636.915 821.5 638.152 851.902 C 639.376 881.998 639.266 932.708 639.293 937.334 C 639.323 942.367 648.717 941.019 652.506 947.009 C 656.296 952.999 660.773 962.15 665.253 964.955"
       stop-color="#000000"
       style="font-variation-settings:normal"
       id="path234" />
    <path
       d="M 592.637 979.298 C 592.637 979.298 596.325 957.268 605.385 947.902"
       stop-color="#000000"
       style="font-variation-settings:normal"
       id="path236" />
    <path
       d="M 615.254 921.943 C 615.254 921.943 605.683 940.141 602.857 966.679 C 600.033 993.216 601.383 1003.45 601.383 1003.45"
       stop-color="#000000"
       style="font-variation-settings:normal"
       id="path238" />
    <path
       d="M 600.226 1068.71 C 600.155 1066.87 610.147 1039.26 618.887 1031.24 C 627.627 1023.22 635.139 1015.37 635.139 1015.37"
       stop-color="#000000"
       style="font-variation-settings:normal"
       id="path240" />
    <path
       d="M 622.503 1062.29 C 622.503 1062.29 628.023 1027.86 644.605 1004 C 661.188 980.146 670.751 963.768 682.93 955.027"
       stop-color="#000000"
       style="font-variation-settings:normal"
       id="path242" />
    <path
       d="M 767.645 852.657 C 767.645 852.657 750.373 852.157 730.96 869.935 C 711.547 887.713 700.548 922.547 696.998 930.676 C 693.448 938.805 666.814 1012.44 659.04 1016.94"
       stop-color="#000000"
       style="font-variation-settings:normal"
       id="path244" />
    <path
       d="M 641.269 844.993 C 641.269 844.993 657.062 857.657 660.946 874.002 C 664.83 890.347 667.68 905.444 667.68 905.444 L 673.711 863.6 C 673.711 863.6 697.639 884.009 703.328 910.348"
       stop-color="#000000"
       style="font-variation-settings:normal"
       id="path246" />
    <path
       d="M 635.681 729.453 C 635.681 729.453 642.239 748.097 641.362 757.065 C 640.484 766.032 636.555 778.944 627.837 789.462 C 619.12 799.98 616.528 805.357 616.528 805.357 C 616.528 805.357 647.948 791.309 654.116 784.87 C 660.283 778.43 664.884 772.431 664.884 772.431"
       stop-color="#000000"
       style="font-variation-settings:normal"
       id="path248" />
    <path
       d="M 686.277 725.715 C 686.277 725.715 682.631 740.797 694.132 775.038 C 705.633 809.28 720.195 834.756 722.627 844.574 C 725.058 854.393 726.751 870.717 726.751 870.717"
       stop-color="#000000"
       style="font-variation-settings:normal"
       id="path250" />
    <path
       d="M 696.547 780.313 C 696.547 780.313 721.463 807.844 737.042 808.024"
       stop-color="#000000"
       style="font-variation-settings:normal"
       id="path252" />
    <path
       d="M 825.339 784.051 C 825.339 784.051 849.167 807.366 854.758 818.841 C 851.913 809.6 836.647 783.682 836.647 783.682"
       stop-color="#000000"
       style="font-variation-settings:normal"
       id="path254" />
    <path
       d="M 866.269 838.158 L 897.985 838.032"
       stop-color="#000000"
       style="font-variation-settings:normal"
       id="path256" />
    <path
       d="M 285.596 419.422 C 285.596 419.422 295.244 491.094 305.236 499.643"
       stop-color="#000000"
       style="font-variation-settings:normal"
       id="path258" />
    <path
       d="M 336.996 423.425 C 336.996 423.425 300.847 444.515 287.314 458.44 C 273.783 472.365 258.205 498.139 258.205 498.139"
       stop-color="#000000"
       style="font-variation-settings:normal"
       id="path260" />
    <path
       d="M 618.237 460.692 C 618.237 460.692 637.884 490.681 642.336 508.558 C 646.788 526.434 651.438 540.775 651.438 540.775"
       stop-color="#000000"
       style="font-variation-settings:normal"
       id="path262" />
    <path
       d="M 617.444 532.205 C 617.444 532.205 632.451 506.08 639.167 496.464 C 645.883 486.847 661.738 456.587 661.738 456.587"
       stop-color="#000000"
       style="font-variation-settings:normal"
       id="path264" />
    <path
       d="M 661.734 456.614 C 661.734 456.614 666.338 489.127 658.28 522.554 C 650.222 555.982 649.796 560.845 644.933 564.322"
       stop-color="#000000"
       style="font-variation-settings:normal"
       id="path266" />
    <path
       d="M 344.646 597.602 C 344.374 597.959 338.818 604.845 338.818 604.845"
       stop-color="#000000"
       style="font-variation-settings:normal"
       id="path268" />
    <path
       d="M 353.157 598.282 C 353.157 598.282 350.044 602.391 346.474 606.4"
       stop-color="#000000"
       style="font-variation-settings:normal"
       id="path270" />
    <path
       d="M 363.665 593.713 L 352.005 608.976"
       stop-color="#000000"
       style="font-variation-settings:normal"
       id="path272" />
    <path
       d="M 368.596 599.603 L 361.477 606.709"
       stop-color="#000000"
       style="font-variation-settings:normal"
       id="path274" />
    <path
       d="M 519.386 622.258 L 514.787 627.945"
       stop-color="#000000"
       style="font-variation-settings:normal"
       id="path276" />
    <path
       d="M 529.656 619.955 L 520.318 630.779"
       stop-color="#000000"
       style="font-variation-settings:normal"
       id="path278" />
    <path
       d="M 542.834 617.501 L 527.021 635.732"
       stop-color="#000000"
       style="font-variation-settings:normal"
       id="path280" />
    <path
       d="M 547.591 625.543 L 541.882 632.428"
       stop-color="#000000"
       style="font-variation-settings:normal"
       id="path282" />
    <path
       d="M 443.266 602.095 L 439.439 606.601 L 445.245 606.822"
       stop-color="#000000"
       style="font-variation-settings:normal"
       id="path284" />
    <path
       d="M 439.188 668.398 C 439.188 668.398 431.717 669.949 429.483 660.895 C 427.249 651.84 436.242 647.543 439.154 646.605 C 442.066 645.666 450.216 646.737 450.216 651.896 C 450.216 657.055 451.68 663.812 448.271 666.91"
       stop-color="#000000"
       style="font-variation-settings:normal"
       id="path286" />
    <path
       d="M 350.242 488.406 C 368.039 483.099 368.97 485.175 376.905 485.812 C 384.84 486.449 402.486 493.614 402.486 493.614"
       stop-color="#000000"
       style="font-variation-settings:normal"
       id="path288" />
    <path
       d="M 333.375 554.822 C 333.375 554.822 323.255 545.828 322.968 541.58 C 322.68 537.332 324.606 518.238 341.011 509.807 C 357.417 501.375 360.721 495.838 385.041 500.395 C 409.359 504.95 406.643 508.649 406.643 508.649 L 395.08 504.121 L 403.149 518.059 C 403.149 518.059 394.021 507.905 387.455 509.299 C 380.889 510.693 401.204 527.758 400.681 534.707 C 400.159 541.656 397.18 556.771 385.656 551.984 C 374.131 547.198 379.118 556.05 375.207 557.02 C 371.295 557.99 363.116 554.526 365.105 546.845 C 367.093 539.163 371.332 541.498 371.332 541.498 C 371.332 541.498 365.74 533.262 368.501 526.476 C 371.262 519.691 375.621 517.212 378.727 517.035 C 381.833 516.858 389.15 517.51 390.555 519.15 C 391.96 520.789 403.747 534.362 402.339 547.397 C 400.932 560.433 393.165 577.133 385.541 580.564 C 377.917 583.995 356.187 585.463 348.946 567.78 C 341.706 550.097 346.214 536.779 348.129 532.391 C 350.044 528.003 361.016 513.592 365.317 512.609 C 369.618 511.626 366.173 507.74 363.059 508.09 C 359.946 508.44 342.171 516.46 336.445 521.779 C 330.718 527.099 327.326 540.453 328.936 545.436 C 330.545 550.418 332.485 551.69 332.485 551.69"
       stop-color="#000000"
       style="font-variation-settings:normal"
       id="path290" />
    <path
       d="M 511.193 519.783 C 511.193 519.783 527.886 510.066 551.979 519.583 C 576.072 529.1 586.022 536.42 589.636 552.762 C 593.251 569.104 588.307 583.686 583.625 586.894 C 578.942 590.103 585.102 573.834 583.07 564.923 C 581.038 556.012 578.423 544.956 574.065 546.162 C 569.707 547.367 578.889 566.939 571.196 572.72 C 563.503 578.501 556.31 574.221 553.775 572.001 C 551.24 569.781 544.627 577.043 541.152 570.915 C 537.678 564.787 546.129 562.104 546.129 562.104 C 546.129 562.104 544.637 553.035 545.485 548.406 C 546.333 543.777 552.36 537.987 558.802 539.054 C 565.243 540.12 570.868 546.879 571.471 550.019 C 572.073 553.159 577.294 566.115 575.891 574.142 C 574.489 582.17 572.61 597.891 559.083 602.96 C 545.556 608.028 525.914 606.158 518.625 593.103 C 511.336 580.048 509.216 568.82 513.655 557.7 C 518.095 546.579 525.236 536.339 536.515 533.663 C 547.794 530.987 545.541 528.243 542.709 527.161 C 539.877 526.08 523.889 523.548 511.518 528.761 C 517.413 521.723 525.362 519.202 525.362 519.202"
       stop-color="#000000"
       style="font-variation-settings:normal"
       id="path292" />
    <path
       d="M 514.78 507.436 C 514.78 507.436 531.516 502.122 546.514 504.143 C 561.511 506.165 576.148 514.959 578.488 517.55"
       stop-color="#000000"
       style="font-variation-settings:normal"
       id="path294" />
    <path
       d="M 220.528 1197.39 C 220.528 1197.39 228.892 1155.22 264.018 1141.03 C 299.145 1126.84 326.862 1139.96 351.707 1162.47 C 376.55 1184.97 374.392 1191.51 376.187 1197.45"
       stop-color="#000000"
       style="font-variation-settings:normal"
       id="path296" />
    <path
       d="M 341.244 1097.9 C 341.244 1097.9 347.734 1127.66 359.412 1150.54 C 372.028 1175.25 376.188 1197.47 376.188 1197.47"
       stop-color="#000000"
       style="font-variation-settings:normal"
       id="path298" />
    <path
       d="M 312.79 851.714 C 325.035 851.972 330.564 862.163 329.995 866.135 C 329.427 870.106 326.569 876.536 313.401 875.667 C 300.233 874.799 296.628 868.482 297.135 864.548 C 297.641 860.614 300.134 852.521 308.27 851.85"
       stop-color="#000000"
       style="font-variation-settings:normal"
       id="path300" />
    <path
       d="M 484.762 872.631 C 497.081 877.953 502.009 891.146 501.141 894.411 C 500.273 897.676 489.101 904.659 474.106 898.058 C 459.112 891.456 459.439 886.53 460.338 881.586 C 461.236 876.643 468.641 868.719 480.622 871.638"
       stop-color="#000000"
       style="font-variation-settings:normal"
       id="path302" />
    <path
       d="M 288.881 960.268 C 301.373 962.277 303.319 969.603 301.858 975.643 C 300.397 981.683 295.595 981.382 288.494 981.623 C 281.393 981.865 274.63 978.085 274.147 970.535 C 273.664 962.985 280.017 960.363 284.221 960.442"
       stop-color="#000000"
       style="font-variation-settings:normal"
       id="path304" />
    <path
       d="M 458.218 978.278 C 468.986 981.196 475.182 992.039 472.182 997.96 C 469.181 1003.88 455.09 1005.78 446.519 998.62 C 437.947 991.461 435.249 990.699 436.139 985.334 C 437.03 979.969 443.163 975.501 454.121 977.461"
       stop-color="#000000"
       style="font-variation-settings:normal"
       id="path306" />
  </g>
</svg>
