<?xml version="1.0" encoding="UTF-8" standalone="no"?>
<svg
   inkscape:version="1.2 (dc2aedaf03, 2022-05-15)"
   sodipodi:docname="cover_98661655_p0.svg"
   id="svg246"
   viewBox="0 0 900 1200"
   version="1.1"
   height="1200"
   width="900"
   xml:space="preserve"
   xmlns:inkscape="http://www.inkscape.org/namespaces/inkscape"
   xmlns:sodipodi="http://sodipodi.sourceforge.net/DTD/sodipodi-0.dtd"
   xmlns="http://www.w3.org/2000/svg"
   xmlns:svg="http://www.w3.org/2000/svg"><defs
     id="defs250" /><sodipodi:namedview
     id="namedview248"
     pagecolor="#ffffff"
     bordercolor="#666666"
     borderopacity="1.0"
     inkscape:pageshadow="2"
     inkscape:pageopacity="0.0"
     inkscape:pagecheckerboard="0"
     showgrid="false"
     inkscape:zoom="0.53166667"
     inkscape:cx="137.30407"
     inkscape:cy="443.88714"
     inkscape:window-width="1920"
     inkscape:window-height="1015"
     inkscape:window-x="0"
     inkscape:window-y="36"
     inkscape:window-maximized="1"
     inkscape:current-layer="svg246"
     inkscape:showpageshadow="0"
     inkscape:deskcolor="#d1d1d1" /><g
     fill="none"
     stroke="#ff0000"
     stroke-width="0.26458px"
     id="g244"><path
       d="M 269.616 331.304 C 250.267 281.412 265.062 173.641 327.538 125.99 C 390.011 78.3332 414.048 82.8197 414.048 82.8197"
       stop-color="#000000"
       style="font-variation-settings:normal;-inkscape-stroke:none"
       id="path2" /><path
       d="M 524.198 74.4736 C 524.198 74.4736 570.939 76.2448 635.093 140.166 C 672.057 176.995 695.474 277.031 688.467 294.173"
       stop-color="#000000"
       style="font-variation-settings:normal;-inkscape-stroke:none"
       id="path4" /><path
       d="M 652.838 218.299 C 673.253 237.506 679.36 275.147 688.451 294.173"
       stop-color="#000000"
       style="font-variation-settings:normal;-inkscape-stroke:none"
       id="path6" /><path
       d="M 308.415 207.48 C 285.657 311.345 266.679 333.808 248.594 380.372 C 231.575 424.199 225.265 459.041 234.109 472.059 C 249.782 495.127 263.717 489.986 281.838 498.703 C 303.417 509.083 291.73 534.313 272.141 538.658 C 272.141 538.658 291.29 538.97 301.893 528.897 C 312.496 518.823 313.681 518.935 315.633 512.443"
       stop-color="#000000"
       style="font-variation-settings:normal;-inkscape-stroke:none"
       id="path8" /><path
       d="M 292.192 446.669 C 292.604 496.595 316.419 510.576 324.937 520.111 C 340.754 537.822 331.77 550.28 317.512 557.044"
       stop-color="#000000"
       style="font-variation-settings:normal;-inkscape-stroke:none"
       id="path10" /><path
       d="M 317.813 401.238 C 298.786 454.46 319.974 492.909 346.985 501.047 C 375.897 509.757 401.169 498.41 408.407 498.813 C 415.645 499.217 457.668 528.273 441.517 553.981"
       stop-color="#000000"
       style="font-variation-settings:normal;-inkscape-stroke:none"
       id="path12" /><path
       d="M 424.312 447.424 C 424.312 447.424 469.522 470.692 466.329 499.084 C 463.136 527.474 455.334 546.234 441.519 553.991"
       stop-color="#000000"
       style="font-variation-settings:normal;-inkscape-stroke:none"
       id="path14" /><path
       d="M 343.734 214.424 C 302.131 282.361 351.872 411.061 431.864 411.302"
       stop-color="#000000"
       style="font-variation-settings:normal;-inkscape-stroke:none"
       id="path16" /><path
       d="M 430.177 110.494 C 412.327 122.737 404.22 139.585 393.864 157.931 C 359.487 218.832 355.718 297.621 380.884 351.951 C 393.222 378.584 411.468 397.14 432.654 410.645"
       stop-color="#000000"
       style="font-variation-settings:normal;-inkscape-stroke:none"
       id="path18" /><path
       d="M 372.565 214.995 C 367.244 235.716 368.565 248.477 368.792 279.717 C 368.982 305.709 374.618 331.243 379.326 333.46 C 384.32 335.811 402.131 322.593 408.131 317.203 C 411.226 314.422 416.812 238.53 414.744 220.724"
       stop-color="#000000"
       style="font-variation-settings:normal;-inkscape-stroke:none"
       id="path20" /><path
       d="M 414.967 258.761 C 414.967 258.761 422.248 298.626 427.112 297.224 C 431.977 295.824 422.628 260.54 432.791 242.865 C 434.132 259.74 448.453 297.149 459.742 305.715 C 452.293 274.42 459.695 234.357 466.945 211.169"
       stop-color="#000000"
       style="font-variation-settings:normal;-inkscape-stroke:none"
       id="path22" /><path
       d="M 475.012 138.062 C 449.977 233.374 495.42 294.433 495.337 292.489 C 495.139 287.926 491.021 266.276 490.106 250.245"
       stop-color="#000000"
       style="font-variation-settings:normal;-inkscape-stroke:none"
       id="path24" /><path
       d="M 490.676 193.827 C 480.718 254.901 502.301 296.009 502.301 296.009 C 502.301 296.009 515.627 294.952 522.959 296.038 C 530.291 297.123 537.576 298.705 537.576 298.705 C 537.576 298.705 547.734 277.126 544.622 250.814"
       stop-color="#000000"
       style="font-variation-settings:normal;-inkscape-stroke:none"
       id="path26" /><path
       d="M 544.629 250.814 C 544.629 250.814 547.803 265.572 548.133 272.621 C 548.464 279.672 548.558 290.792 548.558 290.792 C 548.558 290.792 559.275 267.123 561.903 250.262"
       stop-color="#000000"
       style="font-variation-settings:normal;-inkscape-stroke:none"
       id="path28" /><path
       d="M 555.866 166.999 C 555.866 166.999 561.845 201.349 562.191 221.041 C 562.537 240.734 565.251 289.845 565.251 289.845 L 577.307 290.497 L 593.841 256.64"
       stop-color="#000000"
       style="font-variation-settings:normal;-inkscape-stroke:none"
       id="path30" /><path
       d="M 593.815 256.641 L 595.697 277.661 L 597.642 276.779 L 600.235 255.314"
       stop-color="#000000"
       style="font-variation-settings:normal;-inkscape-stroke:none"
       id="path32" /><path
       d="M 605.317 228.178 C 605.317 228.178 603.504 235.589 601.966 243.455 C 600.429 251.321 600.268 255.313 600.268 255.313 C 600.268 255.313 604.362 261.633 605.703 270.426 C 607.042 279.219 609.473 285.369 609.473 285.369 C 609.473 285.369 617.102 270.569 617.903 247.986 C 618.703 225.404 613.567 204.956 613.567 204.956"
       stop-color="#000000"
       style="font-variation-settings:normal;-inkscape-stroke:none"
       id="path34" /><path
       d="M 578.416 125.233 C 578.416 125.233 608.118 151.16 625.252 186.081 C 636.911 209.844 644.996 231.071 642.44 256.109"
       stop-color="#000000"
       style="font-variation-settings:normal;-inkscape-stroke:none"
       id="path36" /><path
       d="M 384.359 178.26 C 384.359 178.26 424.131 130.669 470.327 123.75 C 516.528 116.831 551.284 110.634 615.177 163.996"
       stop-color="#000000"
       style="font-variation-settings:normal;-inkscape-stroke:none"
       id="path38" /><path
       d="M 384.359 178.26 C 384.359 178.26 391.998 154.1 427.128 127.092 C 444.589 113.667 461.812 111.123 461.812 111.123"
       stop-color="#000000"
       style="font-variation-settings:normal;-inkscape-stroke:none"
       id="path40" /><path
       d="M 461.807 111.125 C 461.818 111.128 419.981 106.342 413.196 76.196 C 409.004 57.5627 437.369 37.0637 443.54 37.0107 C 449.269 36.9608 458.449 45.9068 461.569 54.9338 C 464.689 63.9608 468.677 72.8107 468.677 72.8107 C 472.745 62.5658 485.721 28.7085 501.487 29.3996 C 515.883 30.0316 525.055 58.0287 524.622 66.2513 C 524.19 74.474 519.628 83.4613 502.335 92.6874 C 485.042 101.913 480.862 107.317 480.862 107.317"
       stop-color="#000000"
       style="font-variation-settings:normal;-inkscape-stroke:none"
       id="path42" /><path
       d="M 463.586 103.81 L 456.627 104.249 C 456.627 104.249 428.616 88.5669 429.568 73.5752 C 430.518 58.5835 441.78 51.4478 444.085 51.2242 C 446.391 51.0006 459.003 65.9228 460.404 77.2384 C 461.805 88.554 463.586 103.81 463.586 103.81 Z"
       stop-color="#000000"
       style="font-variation-settings:normal;-inkscape-stroke:none"
       id="path44" /><path
       d="M 473.007 99.8179 C 473.007 99.8179 486.229 97.193 492.051 92.3935 C 497.872 87.5943 513.149 76.6265 513.608 71.9886 C 514.068 67.3506 499.53 49.6399 493.534 49.7214 C 487.538 49.803 471.051 71.4659 470.443 77.9272 C 469.835 84.3889 473.007 99.8175 473.007 99.8175 Z"
       stop-color="#000000"
       style="font-variation-settings:normal;-inkscape-stroke:none"
       id="path46" /><path
       d="M 436.307 411.926 L 433.796 420.879"
       stop-color="#000000"
       style="font-variation-settings:normal;-inkscape-stroke:none"
       id="path48" /><path
       d="M 447.62 407.847 C 447.62 407.847 441.752 421.524 441.406 425.335"
       stop-color="#000000"
       style="font-variation-settings:normal;-inkscape-stroke:none"
       id="path50" /><path
       d="M 455.375 405.278 C 455.375 405.278 450.042 426.177 450.114 427.637"
       stop-color="#000000"
       style="font-variation-settings:normal;-inkscape-stroke:none"
       id="path52" /><path
       d="M 464.835 400.671 L 458.335 426.962"
       stop-color="#000000"
       style="font-variation-settings:normal;-inkscape-stroke:none"
       id="path54" /><path
       d="M 472.288 406.411 L 468.576 420.91"
       stop-color="#000000"
       style="font-variation-settings:normal;-inkscape-stroke:none"
       id="path56" /><path
       d="M 478.152 409.886 L 475.708 417.811"
       stop-color="#000000"
       style="font-variation-settings:normal;-inkscape-stroke:none"
       id="path58" /><path
       d="M 585.339 383.223 C 585.339 383.223 583.254 389.929 583.334 391.738"
       stop-color="#000000"
       style="font-variation-settings:normal;-inkscape-stroke:none"
       id="path60" /><path
       d="M 593.815 376.883 C 593.815 376.883 587.773 392.924 587.708 396.526"
       stop-color="#000000"
       style="font-variation-settings:normal;-inkscape-stroke:none"
       id="path62" /><path
       d="M 603.085 371.788 C 603.085 371.788 595.495 389.367 596.581 397.199"
       stop-color="#000000"
       style="font-variation-settings:normal;-inkscape-stroke:none"
       id="path64" /><path
       d="M 608.873 375.421 C 608.873 375.421 603.336 390.577 603.959 395.057"
       stop-color="#000000"
       style="font-variation-settings:normal;-inkscape-stroke:none"
       id="path66" /><path
       d="M 614.624 375.621 C 614.624 375.621 609.584 385.362 610.241 392.456"
       stop-color="#000000"
       style="font-variation-settings:normal;-inkscape-stroke:none"
       id="path68" /><path
       d="M 544.288 386.32 L 543.319 388.906 L 545.944 389.853"
       stop-color="#000000"
       style="font-variation-settings:normal;-inkscape-stroke:none"
       id="path70" /><path
       d="M 531.159 460.567 C 531.159 460.567 513.242 449.802 528.513 434.524 C 543.784 419.245 553.218 419.645 558.836 428.984 C 564.455 438.321 564.217 450.573 550.947 460.118"
       stop-color="#000000"
       style="font-variation-settings:normal;-inkscape-stroke:none"
       id="path72" /><path
       d="M 460.294 471.028 C 460.294 471.028 470.066 483.301 499.075 488.115 C 526.01 492.584 540.391 494.5 540.391 494.5 C 540.391 494.5 585.177 466.473 591.987 455.63"
       stop-color="#000000"
       style="font-variation-settings:normal;-inkscape-stroke:none"
       id="path74" /><path
       d="M 624.273 345.088 C 624.273 345.088 620.927 369.678 622.237 384.292 C 623.741 401.056 614.864 433.768 605.221 444.63"
       stop-color="#000000"
       style="font-variation-settings:normal;-inkscape-stroke:none"
       id="path76" /><path
       d="M 419.886 339.434 C 410.152 362.704 425.153 382.445 440.704 389.092 C 456.011 395.636 477.882 378.136 471.19 348.88 C 466.25 327.282 433.916 331.05 428.784 334.105 C 423.652 337.159 418.309 346.644 421.089 356.652 C 423.869 366.662 434.569 361.009 434.569 361.009 C 434.569 361.009 435.948 370.974 442.73 364.765 C 449.512 358.557 440.3 357.384 438.112 355.128 C 439.619 352.606 443.985 352.634 445.379 349.462 C 449.523 340.033 440.19 331.485 435.339 331.487 C 430.488 331.489 422.1 335.522 419.664 337.571 C 417.229 339.618 413.544 342.587 410.853 354.972 C 408.163 367.356 415.245 381.575 415.245 381.575 C 415.245 381.575 398.929 373.923 400.049 353.828 C 401.168 333.733 418.793 318.032 438.357 317.419 C 457.922 316.807 471.375 321.473 476.336 323.381 C 481.299 325.289 487.262 331.352 487.262 331.352 L 479.324 329.089 L 485.447 339.386 C 485.447 339.386 470.503 330.204 450.514 329.883"
       stop-color="#000000"
       style="font-variation-settings:normal;-inkscape-stroke:none"
       id="path78" /><path
       d="M 424.388 311.262 C 424.388 311.262 439.117 305.88 457.586 309.808 C 476.055 313.735 478.562 318.825 478.562 318.825"
       stop-color="#000000"
       style="font-variation-settings:normal;-inkscape-stroke:none"
       id="path80" /><path
       d="M 551.25 303.067 C 551.25 303.067 562.081 287.817 572.634 283.144 C 583.187 278.473 586.12 278.73 586.12 278.73"
       stop-color="#000000"
       style="font-variation-settings:normal;-inkscape-stroke:none"
       id="path82" /><path
       d="M 559.46 260.184 C 559.46 260.184 573.597 269.713 582.852 269.401"
       stop-color="#000000"
       style="font-variation-settings:normal;-inkscape-stroke:none"
       id="path84" /><path
       d="M 451.667 284.396 C 451.667 284.396 459.466 284.23 468.245 279.815 C 477.024 275.398 482.976 270.762 482.976 270.762"
       stop-color="#000000"
       style="font-variation-settings:normal;-inkscape-stroke:none"
       id="path86" /><path
       d="M 563.016 323.581 C 563.016 323.581 557.793 347.709 569.711 358.137 C 581.629 368.566 600.39 361.199 603.976 337.765 C 607.562 314.331 592.894 299.936 582.619 301.801 C 572.344 303.667 562.355 321.941 564.398 331.261 C 566.441 340.581 577.269 334.34 577.664 336.265 C 578.058 338.191 580.563 344.487 585.096 338.552 C 589.629 332.617 581.421 331.294 581.421 331.294 C 581.421 331.294 579.679 331.285 583.834 327.951 C 587.989 324.617 590.815 309.613 578.987 308.034 C 567.16 306.457 557.229 329.506 557.229 329.506 C 557.229 329.506 553.782 329.148 554.841 324.885 C 555.902 320.621 560.624 314.299 559.541 313.98 C 558.458 313.661 554.028 318.374 552.953 317.287 C 551.878 316.2 554.807 307.252 568.894 297.646 C 582.982 288.04 594.347 286.386 603.176 288.734 C 612.004 291.081 623.437 304.46 623.14 307.501 C 622.842 310.543 610.91 336.657 608.604 336.04 C 606.297 335.423 614.831 326.99 611.075 313.985 C 607.318 300.98 600.208 294.939 587.024 300.195"
       stop-color="#000000"
       style="font-variation-settings:normal;-inkscape-stroke:none"
       id="path88" /><path
       d="M 630.78 324.049 C 630.78 324.049 614.69 343.97 613.154 343.21 C 611.619 342.451 617.656 327.609 617.656 327.609"
       stop-color="#000000"
       style="font-variation-settings:normal;-inkscape-stroke:none"
       id="path90" /><path
       d="M 402.784 411.963 C 402.784 411.963 410.617 426.68 424.481 432.382 C 440.208 438.851 471.75 455.467 476.902 474.452 C 470.237 470.772 460.346 463.157 451.755 464.659"
       stop-color="#000000"
       style="font-variation-settings:normal;-inkscape-stroke:none"
       id="path92" /><path
       d="M 466.272 490.816 C 474.059 499.117 484.298 503.569 497.194 506.458 C 510.089 509.346 518.754 513.064 518.754 513.064 C 518.754 513.064 515.754 506.795 516.606 501.007 C 517.457 495.219 520.238 492.206 520.238 492.206"
       stop-color="#000000"
       style="font-variation-settings:normal;-inkscape-stroke:none"
       id="path94" /><path
       d="M 521.284 511.512 C 541.073 521.571 562.007 567.008 561.023 573.822"
       stop-color="#000000"
       style="font-variation-settings:normal;-inkscape-stroke:none"
       id="path96" /><path
       d="M 555.45 536.512 C 555.45 536.512 554.89 522.361 559.183 512.197 C 563.476 502.033 568.682 491.579 571.588 490.002"
       stop-color="#000000"
       style="font-variation-settings:normal;-inkscape-stroke:none"
       id="path98" /><path
       d="M 577.47 470.764 C 577.47 470.764 572.247 496.411 568.015 503.975 C 563.782 511.539 557.904 520.233 557.904 520.233 C 557.904 520.233 579.448 512.597 591.625 498.754 C 603.802 484.91 604.335 472.612 604.335 472.612"
       stop-color="#000000"
       style="font-variation-settings:normal;-inkscape-stroke:none"
       id="path100" /><path
       d="M 606.149 447.916 C 606.149 447.916 601.99 460.994 603.158 466.818 C 604.325 472.642 616.916 500.937 650.853 503.232"
       stop-color="#000000"
       style="font-variation-settings:normal;-inkscape-stroke:none"
       id="path102" /><path
       d="M 650.87 503.204 C 650.87 503.204 631.916 495.011 634.206 479.076 C 636.494 463.142 660.986 444.38 665.264 433.63 C 669.541 422.879 675.424 396.714 653.33 379.447"
       stop-color="#000000"
       style="font-variation-settings:normal;-inkscape-stroke:none"
       id="path104" /><path
       d="M 317.515 557.019 C 317.515 557.019 347.115 549.985 360.647 537.245 C 374.178 524.505 380.93 515.696 380.564 511.259"
       stop-color="#000000"
       style="font-variation-settings:normal;-inkscape-stroke:none"
       id="path106" /><path
       d="M 392.569 501.278 C 392.569 501.278 394.647 526.49 404.534 536.658 C 387.461 529.737 380.565 511.265 380.565 511.265"
       stop-color="#000000"
       style="font-variation-settings:normal;-inkscape-stroke:none"
       id="path108" /><path
       d="M 480.876 107.318 C 480.876 107.318 518.905 107.021 537.092 111.383 C 555.28 115.746 590.905 126.159 615.188 163.995"
       stop-color="#000000"
       style="font-variation-settings:normal;-inkscape-stroke:none"
       id="path110" /><path
       d="M 664.718 238.363 C 664.718 238.363 672.915 266.664 669.225 301.273 C 665.385 337.278 656.724 349.189 646.988 361.388"
       stop-color="#000000"
       style="font-variation-settings:normal;-inkscape-stroke:none"
       id="path112" /><path
       d="M 652.119 464.041 C 652.119 464.041 650.962 482.121 663.549 492.413 C 676.135 502.706 686.373 510.522 686.373 510.522 C 686.373 510.522 670.053 491.307 676.258 475.251 C 682.464 459.196 688.983 444.329 694.906 439.761"
       stop-color="#000000"
       style="font-variation-settings:normal;-inkscape-stroke:none"
       id="path114" /><path
       d="M 684.468 344.866 C 684.468 344.866 722.943 366.825 725.334 406.782 C 727.724 446.741 686.564 453.309 686.564 453.309"
       stop-color="#000000"
       style="font-variation-settings:normal;-inkscape-stroke:none"
       id="path116" /><path
       d="M 672.474 298.961 C 672.474 298.961 680.332 311.613 696.088 316.072 C 711.843 320.53 713.793 319.014 713.793 319.014"
       stop-color="#000000"
       style="font-variation-settings:normal;-inkscape-stroke:none"
       id="path118" /><path
       d="M 679.096 224.447 C 679.096 224.447 680.034 208.402 687.213 205.484 C 694.391 202.565 717.04 205.56 730.016 216.222"
       stop-color="#000000"
       style="font-variation-settings:normal;-inkscape-stroke:none"
       id="path120" /><path
       d="M 710.65 315.635 C 710.65 315.635 732.872 314.284 752.742 288.242 C 772.611 262.199 773.65 255.35 769.872 247.527"
       stop-color="#000000"
       style="font-variation-settings:normal;-inkscape-stroke:none"
       id="path122" /><path
       d="M 666.912 317.539 C 666.912 317.539 698.14 341.099 716.417 344.468 C 734.692 347.837 738.029 348.577 742.292 344.487 C 746.556 340.394 735.963 318.067 730.585 314.762"
       stop-color="#000000"
       style="font-variation-settings:normal;-inkscape-stroke:none"
       id="path124" /><path
       d="M 763.657 277.454 C 763.657 277.454 781.83 278.209 774.058 294.269 C 766.286 310.327 742.851 315.43 732.67 307.763"
       stop-color="#000000"
       style="font-variation-settings:normal;-inkscape-stroke:none"
       id="path126" /><path
       d="M 767.592 269.251 C 765.981 269.032 784.684 271.461 784.08 289.025 C 783.538 304.804 771.774 323.25 728.19 313.628"
       stop-color="#000000"
       style="font-variation-settings:normal;-inkscape-stroke:none"
       id="path128" /><path
       d="M 696.765 214.953 C 695.834 226.801 734.94 239.735 745.356 242.574 C 755.774 245.414 769.125 250.325 782.34 241.669 C 795.554 233.013 794.878 229.305 782.073 225.665 C 769.267 222.024 797.187 194.7 789.804 188.896 C 782.419 183.091 771.573 224.702 750.787 220.463 C 730.002 216.223 710.338 212.477 703.933 212.592"
       stop-color="#000000"
       style="font-variation-settings:normal;-inkscape-stroke:none"
       id="path130" /><path
       d="M 795.022 211.663 C 795.447 219.418 806.85 220.334 805.928 213.539 C 805.142 207.745 803.467 206.716 801.614 206.524 C 798.57 206.209 796.926 205.917 795.598 210.18"
       stop-color="#000000"
       style="font-variation-settings:normal;-inkscape-stroke:none"
       id="path132" /><path
       d="M 668.918 189.775 C 679.294 156.08 700.828 153.372 720.052 173.965"
       stop-color="#000000"
       style="font-variation-settings:normal;-inkscape-stroke:none"
       id="path134" /><path
       d="M 700.964 175.915 C 699.764 191.106 719.436 205.827 733.206 205.448 C 746.976 205.07 756.291 187.675 757.981 187.14 C 759.67 186.605 759.454 195.545 771.874 182.353 C 784.296 169.161 788.783 158.797 783.35 155.539 C 777.918 152.281 775.539 158.189 780.358 141.835 C 784.907 126.393 775.919 122.316 774.077 122.486 C 766.57 123.178 760.864 146.948 759.069 148.337 C 757.008 149.932 756.564 141.849 752.736 144.067 C 748.908 146.285 731.906 176.045 724.976 176.511 C 718.045 176.978 706.494 173.637 703.527 174.454"
       stop-color="#000000"
       style="font-variation-settings:normal;-inkscape-stroke:none"
       id="path136" /><path
       d="M 773.722 96.9476 C 768.736 101.217 778.733 105.064 777.594 110.716 C 776.453 116.368 779.786 122.85 784.211 122.795 C 788.637 122.74 789.717 117.73 790.226 115.277 C 790.736 112.824 786.553 97.9802 778.985 96.4541"
       stop-color="#000000"
       style="font-variation-settings:normal;-inkscape-stroke:none"
       id="path138" /><path
       d="M 796.12 121.178 C 799.64 119.546 805.137 127.871 799.693 129.614 C 796.76 130.553 794.408 124.607 794.427 121.965"
       stop-color="#000000"
       style="font-variation-settings:normal;-inkscape-stroke:none"
       id="path140" /><path
       d="M 754.766 288.055 C 754.766 288.055 765.351 294.601 768.957 299.149"
       stop-color="#000000"
       style="font-variation-settings:normal;-inkscape-stroke:none"
       id="path142" /><path
       d="M 779.245 306.367 C 779.245 306.367 891.276 404.806 868.84 430.158 C 846.403 455.51 788.822 440.629 725.705 401.059"
       stop-color="#000000"
       style="font-variation-settings:normal;-inkscape-stroke:none"
       id="path144" /><path
       d="M 408.951 498.974 L 403.988 509.719"
       stop-color="#000000"
       style="font-variation-settings:normal;-inkscape-stroke:none"
       id="path146" /><path
       d="M 408.498 512.872 C 416.977 526.659 423.76 532.508 436.711 540.638"
       stop-color="#000000"
       style="font-variation-settings:normal;-inkscape-stroke:none"
       id="path148" /><path
       d="M 455.829 546.559 C 470.708 556.276 494.357 559.002 513.014 564.454 C 533.51 570.444 555.628 575.607 561.023 573.836"
       stop-color="#000000"
       style="font-variation-settings:normal;-inkscape-stroke:none"
       id="path150" /><path
       d="M 550.039 540.365 C 550.039 540.365 560.426 532.199 564.544 532.829 C 568.663 533.461 580.113 540.993 582.156 546.186"
       stop-color="#000000"
       style="font-variation-settings:normal;-inkscape-stroke:none"
       id="path152" /><path
       d="M 557.455 561.324 C 557.455 561.324 561.758 567.375 567.866 567.692"
       stop-color="#000000"
       style="font-variation-settings:normal;-inkscape-stroke:none"
       id="path154" /><path
       d="M 558.741 538.514 C 558.741 538.514 557.457 545.942 558.806 551.179 C 560.154 556.417 561.75 561.58 561.75 561.58 C 561.75 561.58 563.292 548.01 568.562 543.996"
       stop-color="#000000"
       style="font-variation-settings:normal;-inkscape-stroke:none"
       id="path156" /><path
       d="M 570.698 565.705 C 570.698 565.705 590.093 592.84 593.293 606.65 C 596.493 620.461 614.786 648.415 621.8 651.648 C 628.814 654.879 644.294 652.45 656.143 627.608 C 667.991 602.766 668.013 582.641 664.549 578.713 C 661.084 574.787 605.511 549.825 595.143 549.089 C 584.78 548.352 574.384 549.017 574.384 549.017"
       stop-color="#000000"
       style="font-variation-settings:normal;-inkscape-stroke:none"
       id="path158" /><path
       d="M 573.27 555.245 C 573.27 555.245 593.026 562.951 591.377 565.528 C 589.729 568.105 575.02 561.245 575.02 561.245"
       stop-color="#000000"
       style="font-variation-settings:normal;-inkscape-stroke:none"
       id="path160" /><path
       d="M 629.872 525.675 C 629.872 525.675 643.125 532.954 645.976 546.158"
       stop-color="#000000"
       style="font-variation-settings:normal;-inkscape-stroke:none"
       id="path162" /><path
       d="M 622.418 497.841 C 622.418 497.841 646.367 521.479 655.028 551.434 C 656.735 557.338 659.555 559.412 657.457 573.254"
       stop-color="#000000"
       style="font-variation-settings:normal;-inkscape-stroke:none"
       id="path164" /><path
       d="M 678.377 464.343 C 678.377 464.343 684.578 505.991 679.756 518.321 C 674.934 530.654 664.634 543.515 656.972 551.532"
       stop-color="#000000"
       style="font-variation-settings:normal;-inkscape-stroke:none"
       id="path166" /><path
       d="M 406.568 519.745 C 395.265 535.684 379.123 582.39 387.442 631.077 C 393.975 669.314 411.133 690.69 411.133 690.69"
       stop-color="#000000"
       style="font-variation-settings:normal;-inkscape-stroke:none"
       id="path168" /><path
       d="M 413.227 688.254 C 413.227 688.254 401.678 627.61 414.867 595.649 C 428.056 563.688 459.043 551 482.743 556.864 C 506.443 562.729 543.987 573.708 588.405 623.264"
       stop-color="#000000"
       style="font-variation-settings:normal;-inkscape-stroke:none"
       id="path170" /><path
       d="M 412.999 679.19 C 412.999 679.19 413.933 683.542 417.584 681.188 C 419.683 679.835 416.292 654.503 419.829 629.245 C 422.45 610.537 430.304 592.204 439.52 581.933 C 461.179 557.793 499.057 564.776 536.609 594.858 C 574.16 624.94 585.787 639.879 588.652 638.666"
       stop-color="#000000"
       style="font-variation-settings:normal;-inkscape-stroke:none"
       id="path172" /><path
       d="M 410.616 655.134 C 410.616 655.134 411.347 600.967 434.129 578.112 C 454.635 557.538 478.03 553.515 522.217 576.773 C 543.864 588.166 570.483 615.845 590.17 632.5"
       stop-color="#000000"
       style="font-variation-settings:normal;-inkscape-stroke:none"
       id="path174" /><path
       d="M 409.784 695.09 C 409.784 695.09 424.732 709.15 439.098 767.965 C 453.465 826.781 453.168 845.421 453.168 845.421"
       stop-color="#000000"
       style="font-variation-settings:normal;-inkscape-stroke:none"
       id="path176" /><path
       d="M 426.507 727.568 C 426.507 727.568 417.779 679.088 427.8 648.487 C 437.822 617.884 447.363 601.257 453.573 593.123 C 459.783 584.988 462.597 582.976 462.597 582.976 C 462.597 582.976 493.908 589.098 529.837 616.862 C 565.768 644.626 587.094 686.003 589.697 732.148"
       stop-color="#000000"
       style="font-variation-settings:normal;-inkscape-stroke:none"
       id="path178" /><path
       d="M 489.994 616.726 C 489.994 616.726 530.376 622.543 554.337 656.603 C 578.298 690.662 583.504 718.123 575.54 720.358"
       stop-color="#000000"
       style="font-variation-settings:normal;-inkscape-stroke:none"
       id="path180" /><path
       d="M 510.614 650.375 C 510.614 650.375 562.933 687.725 604.155 767.848 C 639.978 837.484 610.202 877.202 606.874 882.326"
       stop-color="#000000"
       style="font-variation-settings:normal;-inkscape-stroke:none"
       id="path182" /><path
       d="M 446.447 683.608 C 446.447 683.608 431.835 721.683 441.366 759.819 C 450.898 797.954 475.151 853.341 486.705 861.698"
       stop-color="#000000"
       style="font-variation-settings:normal;-inkscape-stroke:none"
       id="path184" /><path
       d="M 627.336 653.472 C 627.336 653.472 656.608 699.927 656.297 733.096 C 655.985 766.265 632.27 843.832 631.025 860.161"
       stop-color="#000000"
       style="font-variation-settings:normal;-inkscape-stroke:none"
       id="path186" /><path
       d="M 571.075 664.046 L 591.763 672.25 C 591.763 672.25 586.107 634.943 589.583 629.715 C 591.48 626.86 606.467 638.224 606.467 638.224"
       stop-color="#000000"
       style="font-variation-settings:normal;-inkscape-stroke:none"
       id="path188" /><path
       d="M 580.799 687.574 C 580.799 687.574 596.533 678.339 604.45 672.298 C 612.368 666.258 624.863 654.479 624.863 654.479"
       stop-color="#000000"
       style="font-variation-settings:normal;-inkscape-stroke:none"
       id="path190" /><path
       d="M 587.761 711.895 C 587.761 711.895 607.352 697.723 613.554 692.471 C 619.755 687.218 636.89 671.138 636.89 671.138"
       stop-color="#000000"
       style="font-variation-settings:normal;-inkscape-stroke:none"
       id="path192" /><path
       d="M 588.745 721.865 C 588.745 721.865 600.488 736.445 602.518 735.573 C 604.549 734.7 606.264 703.673 611.119 700.006 C 615.974 696.337 639.88 709.205 642.341 706.685 C 644.804 704.166 645.973 689.602 645.973 689.602"
       stop-color="#000000"
       style="font-variation-settings:normal;-inkscape-stroke:none"
       id="path194" /><path
       d="M 640.655 653.548 C 640.655 653.548 646.886 675.278 654.881 693.473 C 662.876 711.668 673.287 721.326 673.287 721.326 C 673.287 721.326 677.875 701.712 694.253 692.446 C 710.628 683.181 723.23 683.566 723.23 683.566 C 723.23 683.566 694.495 674.949 682.791 664.291 C 671.087 653.633 656.142 644.943 654.271 633.442"
       stop-color="#000000"
       style="font-variation-settings:normal;-inkscape-stroke:none"
       id="path196" /><path
       d="M 658.853 723.905 L 662.513 732.583 C 662.513 732.583 675.307 722.395 684.559 717.074 C 693.811 711.753 709.115 706.476 709.115 706.476 L 695.682 692.98"
       stop-color="#000000"
       style="font-variation-settings:normal;-inkscape-stroke:none"
       id="path198" /><path
       d="M 512.166 827.758 L 565.594 852.178"
       stop-color="#000000"
       style="font-variation-settings:normal;-inkscape-stroke:none"
       id="path200" /><path
       d="M 515.609 796.564 L 565.449 832.77"
       stop-color="#000000"
       style="font-variation-settings:normal;-inkscape-stroke:none"
       id="path202" /><path
       d="M 508.458 772.017 C 508.458 772.017 520.216 781.546 533.589 796.564 C 546.962 811.584 580.119 840.659 580.119 840.659"
       stop-color="#000000"
       style="font-variation-settings:normal;-inkscape-stroke:none"
       id="path204" /><path
       d="M 501.686 808.612 C 501.686 808.612 492.582 841.082 490.615 855.751 C 488.649 870.419 482.561 891.271 487.675 905.239 C 492.788 919.207 504.507 938.142 517.852 950.451 C 531.195 962.761 535.103 971.347 544.212 977.502 C 553.321 983.656 565.548 989.151 574.498 989.018"
       stop-color="#000000"
       style="font-variation-settings:normal;-inkscape-stroke:none"
       id="path206" /><path
       d="M 561.389 944.717 C 565.732 964.765 576.837 1001.95 592.676 1022.15 C 619.594 1056.49 656.883 1075.89 701.104 1085.93"
       stop-color="#000000"
       style="font-variation-settings:normal;-inkscape-stroke:none"
       id="path208" /><path
       d="M 705.694 1039.92 C 705.694 1039.92 709.405 1047.92 707.814 1056.38 C 706.224 1064.83 696.737 1094.01 701.146 1105.25 C 705.554 1116.49 711.574 1113.04 718.048 1124.09 C 724.523 1135.15 724.664 1141.85 738.39 1125.38 C 752.117 1108.9 787.723 1072 793.372 1051.56 C 799.021 1031.13 794.609 1032.72 778.173 1028.91 C 761.736 1025.11 751.004 1034.94 748.146 1012.14 C 745.291 989.374 727.515 943.24 715.492 927.356 C 703.921 912.071 695.409 894.139 656.771 878.445 C 632.9 868.75 615.214 870.462 615.214 870.462"
       stop-color="#000000"
       style="font-variation-settings:normal;-inkscape-stroke:none"
       id="path210" /><path
       d="M 136.17 887.276 C 136.17 887.276 101.853 897.649 78.7742 916.952 C 55.6957 936.255 34.556 955.578 37.1175 977.418 C 39.6805 999.257 41.9839 1010.58 43.3558 1016.9 C 44.7279 1023.21 50.4972 1034.02 53.7037 1032.9 C 56.9102 1031.79 48.4022 1016.25 57.6182 1000.37 C 66.8345 984.499 85.7055 942.44 121.038 925.627 C 156.372 908.812 170.783 904.541 211.214 911.281 C 224.88 913.56 235.703 909.699 248.881 908.406 C 274.117 905.931 298.672 898.799 298.672 898.799 L 334.357 900.939 C 334.357 900.939 311.53 918.834 312.188 929.868 C 312.846 940.902 349.131 971.228 363.799 968.646 C 378.465 966.065 407.472 955.207 425.731 931.351 C 443.989 907.494 464.187 865.997 463.549 857.697 C 462.911 849.4 454.61 843.189 447.167 843.189 C 439.724 843.189 439.239 844.824 439.239 844.824 C 439.239 844.824 421.47 827.972 407.249 820.394 C 393.028 812.816 354.537 801.103 332.638 801.103 C 310.741 801.103 287.943 801.655 270.6 825.951 C 253.255 850.246 253.482 868.588 253.266 873.463 C 253.048 878.34 253.731 886.398 253.731 886.398 C 253.731 886.398 216.565 898.508 194.476 887.491 C 172.386 876.473 138.685 852.66 97.8828 847.361 C 57.0813 842.061 25.7537 845.779 25.7537 845.779 C 25.7537 845.779 19.6489 853.064 17.4057 871.151 C 15.1626 889.239 16.158 898.945 16.158 898.945 C 16.158 898.945 43.4932 880.701 59.8691 879.138 C 76.2435 877.577 94.9477 876.419 114.091 880.457 C 133.233 884.495 136.732 883.961 136.732 883.961"
       stop-color="#000000"
       style="font-variation-settings:normal;-inkscape-stroke:none"
       id="path212" /><path
       d="M 432.409 855.365 C 432.409 855.365 405.56 861.806 385.1 869.415 C 364.641 877.023 356.055 883.647 356.055 883.647 C 356.055 883.647 314.875 886.445 301.784 882.987 C 288.693 879.529 265.741 882.949 283.372 851.496 C 301.004 820.044 322.544 823.616 337.938 824.091 C 353.332 824.566 384.105 831.355 397.083 835.605 C 410.061 839.856 432.7 851.66 432.7 851.66"
       stop-color="#000000"
       style="font-variation-settings:normal;-inkscape-stroke:none"
       id="path214" /><path
       d="M 439.598 865.298 C 439.598 865.298 430.148 893.89 415.875 908.516 C 401.603 923.141 389.135 938.792 371.597 933.524 C 354.057 928.256 344.275 923.305 344.275 923.305 C 344.275 923.305 358.753 899.535 389.488 884.759 C 420.225 869.983 438.477 862.346 438.477 862.346"
       stop-color="#000000"
       style="font-variation-settings:normal;-inkscape-stroke:none"
       id="path216" /><path
       d="M 668.577 322.83 C 668.577 322.83 689.727 340.519 706.07 347.893 C 722.414 355.266 735.467 359.553 735.467 359.553 C 735.467 359.553 712.468 364.199 698.451 354.533"
       stop-color="#000000"
       style="font-variation-settings:normal;-inkscape-stroke:none"
       id="path218" /><path
       d="M 209.869 1033.5 L 233.846 961.195 C 233.846 961.195 260.746 942.392 276.403 934.981 C 292.06 927.57 319.21 914.542 319.21 914.542"
       stop-color="#000000"
       style="font-variation-settings:normal;-inkscape-stroke:none"
       id="path220" /><path
       d="M 253.713 947.097 C 254.127 945.473 254.41 940.364 254.41 940.364 L 262.966 936.099 L 272.276 936.33 L 265.381 942.99 C 265.381 942.99 257.972 965.586 256.441 981.299 C 254.911 997.014 254.678 1008.69 254.678 1008.69 L 324.609 947.894"
       stop-color="#000000"
       style="font-variation-settings:normal;-inkscape-stroke:none"
       id="path222" /><path
       d="M 213.691 1033.81 C 213.691 1033.81 224.135 1029.5 232.72 1024.82 C 241.304 1020.14 248.794 1012.95 248.794 1012.95 C 248.794 1012.95 246.558 997.762 249.794 982.086 C 253.031 966.411 258.6 945.638 258.6 945.638"
       stop-color="#000000"
       style="font-variation-settings:normal;-inkscape-stroke:none"
       id="path224" /><path
       d="M 326.372 949.816 C 326.372 949.816 312.617 964.136 306.331 974.398 C 300.044 984.66 290.197 996.032 290.197 996.032 C 290.197 996.032 337.121 981.894 373.39 975.295 C 409.66 968.696 455.083 967.644 504.617 985.399 C 554.151 1003.15 583.735 1016.19 581.264 1021.23 C 578.793 1026.28 544.184 1006.65 533.244 1003.21 C 522.303 999.77 477.131 981.941 438.365 978.883 C 399.598 975.823 360.908 986.303 341.385 991.183 C 321.862 996.063 307.935 1002.32 299.823 1003.03 C 291.709 1003.75 283.217 1005.89 283.217 1005.89 L 259.66 1044.73 C 259.66 1044.73 329.739 1018.73 353.481 1016.97 C 377.223 1015.2 440.037 1006.38 502.163 1022.61 C 564.288 1038.84 553.758 1034.18 565.536 1039.42 C 577.315 1044.65 590.492 1051.92 590.492 1051.92"
       stop-color="#000000"
       style="font-variation-settings:normal;-inkscape-stroke:none"
       id="path226" /><path
       d="M 349.006 924.514 C 349.006 924.514 366.703 909.286 372.029 907.865"
       stop-color="#000000"
       style="font-variation-settings:normal;-inkscape-stroke:none"
       id="path228" /><path
       d="M 26.8679 1199.18 C 26.8679 1199.18 84.51 1143.25 107.132 1126.88 C 129.756 1110.51 209.865 1033.48 209.865 1033.48"
       stop-color="#000000"
       style="font-variation-settings:normal;-inkscape-stroke:none"
       id="path230" /><path
       d="M 584.129 1012.51 C 584.129 1012.51 585.798 1040.1 590.025 1043.22 C 594.182 1046.28 638.117 1086.66 672.945 1133.73 C 693.743 1161.83 716.766 1197.93 716.766 1197.93"
       stop-color="#000000"
       style="font-variation-settings:normal;-inkscape-stroke:none"
       id="path232" /><path
       d="M 712.618 1065.94 L 726.899 1057.21"
       stop-color="#000000"
       style="font-variation-settings:normal;-inkscape-stroke:none"
       id="path234" /><path
       d="M 753.593 1112.36 C 753.593 1112.36 763.87 1129.65 770.378 1136.42 C 776.886 1143.21 785.128 1150.13 785.128 1150.13 L 806.853 1198.45 L 810.495 1197.56 L 806.82 1144.18 L 830.179 1174.46 L 842.222 1198.58 L 851.868 1198.06 C 851.868 1198.06 846.9 1171.6 846.681 1170.4 C 846.46 1169.21 821.544 1115.62 821.544 1115.62"
       stop-color="#000000"
       style="font-variation-settings:normal;-inkscape-stroke:none"
       id="path236" /><path
       d="M 791.731 1060.54 L 847.845 1102.08 L 895.025 1167.19 L 896.499 1173.23 L 894.581 1176.56 L 866.873 1153.77 L 848.142 1134.34 L 837.633 1111.1 L 864.983 1164.49 L 871.665 1193.8 L 871.729 1197.81 L 860.558 1198.59 L 846.808 1173.52"
       stop-color="#000000"
       style="font-variation-settings:normal;-inkscape-stroke:none"
       id="path238" /><path
       d="M 785.147 1150.13 L 771.219 1163.33 L 797.663 1197.12"
       stop-color="#000000"
       style="font-variation-settings:normal;-inkscape-stroke:none"
       id="path240" /><path
       d="M 855.143 1102.43 L 877 1086.72 L 896.321 1115.49"
       stop-color="#000000"
       style="font-variation-settings:normal;-inkscape-stroke:none"
       id="path242" /></g></svg>
